<mxfile host="www.draw.io" modified="2020-05-10T14:52:00.698Z" agent="5.0 (Macintosh; Intel Mac OS X 10_15_4) AppleWebKit/537.36 (KHTML, like Gecko) Chrome/81.0.4044.129 Safari/537.36" etag="OSBIpwQm3PSFK92Q9Hpj" version="13.0.5" type="github" pages="7">
  <diagram id="v3NK2iJtWiV4ewWRPjDE" name="recursion">
    <mxGraphModel dx="1042" dy="662" grid="1" gridSize="10" guides="1" tooltips="1" connect="1" arrows="1" fold="1" page="1" pageScale="1" pageWidth="1100" pageHeight="850" math="1" shadow="0">
      <root>
        <mxCell id="0" />
        <mxCell id="1" parent="0" />
        <mxCell id="LH0Kjvml57SRlFlZEhaT-7" style="edgeStyle=orthogonalEdgeStyle;rounded=0;orthogonalLoop=1;jettySize=auto;html=1;exitX=1;exitY=0.5;exitDx=0;exitDy=0;" parent="1" source="LH0Kjvml57SRlFlZEhaT-1" target="LH0Kjvml57SRlFlZEhaT-2" edge="1">
          <mxGeometry relative="1" as="geometry" />
        </mxCell>
        <mxCell id="LH0Kjvml57SRlFlZEhaT-12" value="$$f$$" style="text;html=1;align=center;verticalAlign=middle;resizable=0;points=[];labelBackgroundColor=#ffffff;" parent="LH0Kjvml57SRlFlZEhaT-7" vertex="1" connectable="0">
          <mxGeometry x="-0.1167" y="-2" relative="1" as="geometry">
            <mxPoint as="offset" />
          </mxGeometry>
        </mxCell>
        <mxCell id="LH0Kjvml57SRlFlZEhaT-1" value="$$h_1$$" style="ellipse;whiteSpace=wrap;html=1;aspect=fixed;fontStyle=1" parent="1" vertex="1">
          <mxGeometry x="120" y="320" width="80" height="80" as="geometry" />
        </mxCell>
        <mxCell id="LH0Kjvml57SRlFlZEhaT-2" value="$$h_2$$" style="ellipse;whiteSpace=wrap;html=1;aspect=fixed;" parent="1" vertex="1">
          <mxGeometry x="240" y="320" width="80" height="80" as="geometry" />
        </mxCell>
        <mxCell id="LH0Kjvml57SRlFlZEhaT-3" value="..." style="ellipse;whiteSpace=wrap;html=1;aspect=fixed;" parent="1" vertex="1">
          <mxGeometry x="360" y="320" width="80" height="80" as="geometry" />
        </mxCell>
        <mxCell id="LH0Kjvml57SRlFlZEhaT-13" style="edgeStyle=orthogonalEdgeStyle;rounded=0;orthogonalLoop=1;jettySize=auto;html=1;exitX=1;exitY=0.5;exitDx=0;exitDy=0;entryX=0;entryY=0.5;entryDx=0;entryDy=0;" parent="1" source="LH0Kjvml57SRlFlZEhaT-2" target="LH0Kjvml57SRlFlZEhaT-3" edge="1">
          <mxGeometry relative="1" as="geometry">
            <mxPoint x="340" y="400" as="sourcePoint" />
            <mxPoint x="380" y="400" as="targetPoint" />
          </mxGeometry>
        </mxCell>
        <mxCell id="LH0Kjvml57SRlFlZEhaT-14" value="$$f$$" style="text;html=1;align=center;verticalAlign=middle;resizable=0;points=[];labelBackgroundColor=#ffffff;" parent="LH0Kjvml57SRlFlZEhaT-13" vertex="1" connectable="0">
          <mxGeometry x="-0.1167" y="-2" relative="1" as="geometry">
            <mxPoint as="offset" />
          </mxGeometry>
        </mxCell>
        <mxCell id="LH0Kjvml57SRlFlZEhaT-15" style="edgeStyle=orthogonalEdgeStyle;rounded=0;orthogonalLoop=1;jettySize=auto;html=1;exitX=1;exitY=0.5;exitDx=0;exitDy=0;" parent="1" target="LH0Kjvml57SRlFlZEhaT-17" edge="1">
          <mxGeometry relative="1" as="geometry">
            <mxPoint x="440" y="360" as="sourcePoint" />
          </mxGeometry>
        </mxCell>
        <mxCell id="LH0Kjvml57SRlFlZEhaT-16" value="$$f$$" style="text;html=1;align=center;verticalAlign=middle;resizable=0;points=[];labelBackgroundColor=#ffffff;" parent="LH0Kjvml57SRlFlZEhaT-15" vertex="1" connectable="0">
          <mxGeometry x="-0.1167" y="-2" relative="1" as="geometry">
            <mxPoint as="offset" />
          </mxGeometry>
        </mxCell>
        <mxCell id="LH0Kjvml57SRlFlZEhaT-17" value="$$h_t$$" style="ellipse;whiteSpace=wrap;html=1;aspect=fixed;" parent="1" vertex="1">
          <mxGeometry x="480" y="320" width="80" height="80" as="geometry" />
        </mxCell>
        <mxCell id="LH0Kjvml57SRlFlZEhaT-21" style="edgeStyle=orthogonalEdgeStyle;rounded=0;orthogonalLoop=1;jettySize=auto;html=1;exitX=1;exitY=0.5;exitDx=0;exitDy=0;" parent="1" source="LH0Kjvml57SRlFlZEhaT-18" edge="1">
          <mxGeometry relative="1" as="geometry">
            <mxPoint x="720" y="360" as="targetPoint" />
          </mxGeometry>
        </mxCell>
        <mxCell id="LH0Kjvml57SRlFlZEhaT-18" value="..." style="ellipse;whiteSpace=wrap;html=1;aspect=fixed;" parent="1" vertex="1">
          <mxGeometry x="600" y="320" width="80" height="80" as="geometry" />
        </mxCell>
        <mxCell id="LH0Kjvml57SRlFlZEhaT-19" style="edgeStyle=orthogonalEdgeStyle;rounded=0;orthogonalLoop=1;jettySize=auto;html=1;exitX=1;exitY=0.5;exitDx=0;exitDy=0;entryX=0;entryY=0.5;entryDx=0;entryDy=0;" parent="1" source="LH0Kjvml57SRlFlZEhaT-17" target="LH0Kjvml57SRlFlZEhaT-18" edge="1">
          <mxGeometry relative="1" as="geometry">
            <mxPoint x="580" y="400" as="sourcePoint" />
            <mxPoint x="620" y="400" as="targetPoint" />
          </mxGeometry>
        </mxCell>
        <mxCell id="LH0Kjvml57SRlFlZEhaT-20" value="$$f$$" style="text;html=1;align=center;verticalAlign=middle;resizable=0;points=[];labelBackgroundColor=#ffffff;" parent="LH0Kjvml57SRlFlZEhaT-19" vertex="1" connectable="0">
          <mxGeometry x="-0.1167" y="-2" relative="1" as="geometry">
            <mxPoint as="offset" />
          </mxGeometry>
        </mxCell>
        <mxCell id="LH0Kjvml57SRlFlZEhaT-35" style="edgeStyle=orthogonalEdgeStyle;rounded=0;orthogonalLoop=1;jettySize=auto;html=1;exitX=0.5;exitY=1;exitDx=0;exitDy=0;entryX=0.5;entryY=0;entryDx=0;entryDy=0;" parent="1" source="LH0Kjvml57SRlFlZEhaT-24" target="LH0Kjvml57SRlFlZEhaT-1" edge="1">
          <mxGeometry relative="1" as="geometry" />
        </mxCell>
        <mxCell id="LH0Kjvml57SRlFlZEhaT-24" value="$$x_1$$" style="ellipse;whiteSpace=wrap;html=1;aspect=fixed;fontStyle=1" parent="1" vertex="1">
          <mxGeometry x="120" y="200" width="80" height="80" as="geometry" />
        </mxCell>
        <mxCell id="LH0Kjvml57SRlFlZEhaT-36" style="edgeStyle=orthogonalEdgeStyle;rounded=0;orthogonalLoop=1;jettySize=auto;html=1;exitX=0.5;exitY=1;exitDx=0;exitDy=0;entryX=0.5;entryY=0;entryDx=0;entryDy=0;" parent="1" source="LH0Kjvml57SRlFlZEhaT-25" target="LH0Kjvml57SRlFlZEhaT-2" edge="1">
          <mxGeometry relative="1" as="geometry" />
        </mxCell>
        <mxCell id="LH0Kjvml57SRlFlZEhaT-25" value="$$x_2$$" style="ellipse;whiteSpace=wrap;html=1;aspect=fixed;" parent="1" vertex="1">
          <mxGeometry x="240" y="200" width="80" height="80" as="geometry" />
        </mxCell>
        <mxCell id="LH0Kjvml57SRlFlZEhaT-37" style="edgeStyle=orthogonalEdgeStyle;rounded=0;orthogonalLoop=1;jettySize=auto;html=1;exitX=0.5;exitY=1;exitDx=0;exitDy=0;entryX=0.5;entryY=0;entryDx=0;entryDy=0;" parent="1" source="LH0Kjvml57SRlFlZEhaT-26" target="LH0Kjvml57SRlFlZEhaT-3" edge="1">
          <mxGeometry relative="1" as="geometry" />
        </mxCell>
        <mxCell id="LH0Kjvml57SRlFlZEhaT-26" value="..." style="ellipse;whiteSpace=wrap;html=1;aspect=fixed;" parent="1" vertex="1">
          <mxGeometry x="360" y="200" width="80" height="80" as="geometry" />
        </mxCell>
        <mxCell id="LH0Kjvml57SRlFlZEhaT-38" style="edgeStyle=orthogonalEdgeStyle;rounded=0;orthogonalLoop=1;jettySize=auto;html=1;exitX=0.5;exitY=1;exitDx=0;exitDy=0;entryX=0.5;entryY=0;entryDx=0;entryDy=0;" parent="1" source="LH0Kjvml57SRlFlZEhaT-31" target="LH0Kjvml57SRlFlZEhaT-17" edge="1">
          <mxGeometry relative="1" as="geometry" />
        </mxCell>
        <mxCell id="LH0Kjvml57SRlFlZEhaT-31" value="$$x_t$$" style="ellipse;whiteSpace=wrap;html=1;aspect=fixed;" parent="1" vertex="1">
          <mxGeometry x="480" y="200" width="80" height="80" as="geometry" />
        </mxCell>
        <mxCell id="LH0Kjvml57SRlFlZEhaT-39" style="edgeStyle=orthogonalEdgeStyle;rounded=0;orthogonalLoop=1;jettySize=auto;html=1;exitX=0.5;exitY=1;exitDx=0;exitDy=0;entryX=0.5;entryY=0;entryDx=0;entryDy=0;" parent="1" source="LH0Kjvml57SRlFlZEhaT-32" target="LH0Kjvml57SRlFlZEhaT-18" edge="1">
          <mxGeometry relative="1" as="geometry" />
        </mxCell>
        <mxCell id="LH0Kjvml57SRlFlZEhaT-32" value="..." style="ellipse;whiteSpace=wrap;html=1;aspect=fixed;" parent="1" vertex="1">
          <mxGeometry x="600" y="200" width="80" height="80" as="geometry" />
        </mxCell>
      </root>
    </mxGraphModel>
  </diagram>
  <diagram id="o5azgTFv1BSCoJg6WtHB" name="hidden-recursion">
    
    <mxGraphModel dx="599" dy="685" grid="1" gridSize="10" guides="1" tooltips="1" connect="1" arrows="1" fold="1" page="1" pageScale="1" pageWidth="1100" pageHeight="850" math="1" shadow="0">
      
      <root>
        
        <mxCell id="JuaKtVvA1tjqQAxgrmdK-0" />
        
        <mxCell id="JuaKtVvA1tjqQAxgrmdK-1" parent="JuaKtVvA1tjqQAxgrmdK-0" />
        
        <mxCell id="JuaKtVvA1tjqQAxgrmdK-8" style="edgeStyle=orthogonalEdgeStyle;rounded=0;orthogonalLoop=1;jettySize=auto;html=1;exitX=0.5;exitY=0;exitDx=0;exitDy=0;entryX=0.5;entryY=1;entryDx=0;entryDy=0;" parent="JuaKtVvA1tjqQAxgrmdK-1" source="JuaKtVvA1tjqQAxgrmdK-2" target="JuaKtVvA1tjqQAxgrmdK-3" edge="1">
          
          <mxGeometry relative="1" as="geometry" />
          
        </mxCell>
        
        <mxCell id="JuaKtVvA1tjqQAxgrmdK-34" value="$$\mathbf V$$" style="text;html=1;align=center;verticalAlign=middle;resizable=0;points=[];labelBackgroundColor=#ffffff;" parent="JuaKtVvA1tjqQAxgrmdK-8" vertex="1" connectable="0">
          
          <mxGeometry x="-0.4" y="-1" relative="1" as="geometry">
            
            <mxPoint x="-1" y="-16" as="offset" />
            
          </mxGeometry>
          
        </mxCell>
        
        <mxCell id="JuaKtVvA1tjqQAxgrmdK-30" style="edgeStyle=orthogonalEdgeStyle;rounded=0;orthogonalLoop=1;jettySize=auto;html=1;exitX=1;exitY=0.5;exitDx=0;exitDy=0;" parent="JuaKtVvA1tjqQAxgrmdK-1" source="JuaKtVvA1tjqQAxgrmdK-2" target="JuaKtVvA1tjqQAxgrmdK-13" edge="1">
          
          <mxGeometry relative="1" as="geometry" />
          
        </mxCell>
        
        <mxCell id="JuaKtVvA1tjqQAxgrmdK-35" value="$$\mathbf W$$" style="text;html=1;align=center;verticalAlign=middle;resizable=0;points=[];labelBackgroundColor=#ffffff;" parent="JuaKtVvA1tjqQAxgrmdK-30" vertex="1" connectable="0">
          
          <mxGeometry x="0.125" y="-1" relative="1" as="geometry">
            
            <mxPoint as="offset" />
            
          </mxGeometry>
          
        </mxCell>
        
        <mxCell id="JuaKtVvA1tjqQAxgrmdK-2" value="&lt;span style=&quot;white-space: normal&quot;&gt;$$\mathbf h_{t-1}$$&lt;/span&gt;" style="ellipse;whiteSpace=wrap;html=1;aspect=fixed;" parent="JuaKtVvA1tjqQAxgrmdK-1" vertex="1">
          
          <mxGeometry x="120" y="480" width="80" height="80" as="geometry" />
          
        </mxCell>
        
        <mxCell id="JuaKtVvA1tjqQAxgrmdK-9" style="edgeStyle=orthogonalEdgeStyle;rounded=0;orthogonalLoop=1;jettySize=auto;html=1;exitX=0.5;exitY=0;exitDx=0;exitDy=0;entryX=0.5;entryY=1;entryDx=0;entryDy=0;" parent="JuaKtVvA1tjqQAxgrmdK-1" source="JuaKtVvA1tjqQAxgrmdK-3" target="JuaKtVvA1tjqQAxgrmdK-4" edge="1">
          
          <mxGeometry relative="1" as="geometry" />
          
        </mxCell>
        
        <mxCell id="JuaKtVvA1tjqQAxgrmdK-3" value="&lt;span style=&quot;white-space: normal&quot;&gt;$$\mathbf o_{t-1}$$&lt;/span&gt;" style="ellipse;whiteSpace=wrap;html=1;aspect=fixed;" parent="JuaKtVvA1tjqQAxgrmdK-1" vertex="1">
          
          <mxGeometry x="120" y="320" width="80" height="80" as="geometry" />
          
        </mxCell>
        
        <mxCell id="JuaKtVvA1tjqQAxgrmdK-10" style="edgeStyle=orthogonalEdgeStyle;rounded=0;orthogonalLoop=1;jettySize=auto;html=1;exitX=0.5;exitY=0;exitDx=0;exitDy=0;entryX=0.5;entryY=1;entryDx=0;entryDy=0;" parent="JuaKtVvA1tjqQAxgrmdK-1" source="JuaKtVvA1tjqQAxgrmdK-4" target="JuaKtVvA1tjqQAxgrmdK-5" edge="1">
          
          <mxGeometry relative="1" as="geometry" />
          
        </mxCell>
        
        <mxCell id="JuaKtVvA1tjqQAxgrmdK-4" value="&lt;span style=&quot;white-space: normal&quot;&gt;$$L_{t-1}$$&lt;/span&gt;" style="ellipse;whiteSpace=wrap;html=1;aspect=fixed;" parent="JuaKtVvA1tjqQAxgrmdK-1" vertex="1">
          
          <mxGeometry x="120" y="200" width="80" height="80" as="geometry" />
          
        </mxCell>
        
        <mxCell id="JuaKtVvA1tjqQAxgrmdK-5" value="&lt;span style=&quot;white-space: normal&quot;&gt;$$y_{t-1}$$&lt;/span&gt;" style="ellipse;whiteSpace=wrap;html=1;aspect=fixed;" parent="JuaKtVvA1tjqQAxgrmdK-1" vertex="1">
          
          <mxGeometry x="120" y="80" width="80" height="80" as="geometry" />
          
        </mxCell>
        
        <mxCell id="JuaKtVvA1tjqQAxgrmdK-7" value="$$\mathbf U$$" style="edgeStyle=orthogonalEdgeStyle;rounded=0;orthogonalLoop=1;jettySize=auto;html=1;exitX=0.5;exitY=0;exitDx=0;exitDy=0;entryX=0.5;entryY=1;entryDx=0;entryDy=0;" parent="JuaKtVvA1tjqQAxgrmdK-1" source="JuaKtVvA1tjqQAxgrmdK-6" target="JuaKtVvA1tjqQAxgrmdK-2" edge="1">
          
          <mxGeometry relative="1" as="geometry" />
          
        </mxCell>
        
        <mxCell id="JuaKtVvA1tjqQAxgrmdK-6" value="$$\mathbf x_{t-1}$$" style="ellipse;whiteSpace=wrap;html=1;aspect=fixed;" parent="JuaKtVvA1tjqQAxgrmdK-1" vertex="1">
          
          <mxGeometry x="120" y="620" width="80" height="80" as="geometry" />
          
        </mxCell>
        
        <mxCell id="JuaKtVvA1tjqQAxgrmdK-11" value="" style="endArrow=classic;html=1;entryX=0;entryY=0.5;entryDx=0;entryDy=0;" parent="JuaKtVvA1tjqQAxgrmdK-1" target="JuaKtVvA1tjqQAxgrmdK-2" edge="1">
          
          <mxGeometry width="50" height="50" relative="1" as="geometry">
            
            <mxPoint x="60" y="520" as="sourcePoint" />
            
            <mxPoint x="170" y="700" as="targetPoint" />
            
          </mxGeometry>
          
        </mxCell>
        
        <mxCell id="JuaKtVvA1tjqQAxgrmdK-33" value="$$\mathbf W$$" style="text;html=1;align=center;verticalAlign=middle;resizable=0;points=[];labelBackgroundColor=#ffffff;" parent="JuaKtVvA1tjqQAxgrmdK-11" vertex="1" connectable="0">
          
          <mxGeometry x="0.1667" y="1" relative="1" as="geometry">
            
            <mxPoint as="offset" />
            
          </mxGeometry>
          
        </mxCell>
        
        <mxCell id="JuaKtVvA1tjqQAxgrmdK-12" style="edgeStyle=orthogonalEdgeStyle;rounded=0;orthogonalLoop=1;jettySize=auto;html=1;exitX=0.5;exitY=0;exitDx=0;exitDy=0;entryX=0.5;entryY=1;entryDx=0;entryDy=0;" parent="JuaKtVvA1tjqQAxgrmdK-1" source="JuaKtVvA1tjqQAxgrmdK-13" target="JuaKtVvA1tjqQAxgrmdK-15" edge="1">
          
          <mxGeometry relative="1" as="geometry" />
          
        </mxCell>
        
        <mxCell id="JuaKtVvA1tjqQAxgrmdK-38" value="$$\mathbf V$$" style="text;html=1;align=center;verticalAlign=middle;resizable=0;points=[];labelBackgroundColor=#ffffff;" parent="JuaKtVvA1tjqQAxgrmdK-12" vertex="1" connectable="0">
          
          <mxGeometry x="-0.125" relative="1" as="geometry">
            
            <mxPoint y="-5" as="offset" />
            
          </mxGeometry>
          
        </mxCell>
        
        <mxCell id="JuaKtVvA1tjqQAxgrmdK-31" style="edgeStyle=orthogonalEdgeStyle;rounded=0;orthogonalLoop=1;jettySize=auto;html=1;exitX=1;exitY=0.5;exitDx=0;exitDy=0;entryX=0;entryY=0.5;entryDx=0;entryDy=0;" parent="JuaKtVvA1tjqQAxgrmdK-1" source="JuaKtVvA1tjqQAxgrmdK-13" target="JuaKtVvA1tjqQAxgrmdK-22" edge="1">
          
          <mxGeometry relative="1" as="geometry" />
          
        </mxCell>
        
        <mxCell id="JuaKtVvA1tjqQAxgrmdK-36" value="$$\mathbf W$$" style="text;html=1;align=center;verticalAlign=middle;resizable=0;points=[];labelBackgroundColor=#ffffff;" parent="JuaKtVvA1tjqQAxgrmdK-31" vertex="1" connectable="0">
          
          <mxGeometry x="0.025" y="-1" relative="1" as="geometry">
            
            <mxPoint as="offset" />
            
          </mxGeometry>
          
        </mxCell>
        
        <mxCell id="JuaKtVvA1tjqQAxgrmdK-13" value="&lt;span style=&quot;white-space: normal&quot;&gt;$$\mathbf h_t$$&lt;/span&gt;" style="ellipse;whiteSpace=wrap;html=1;aspect=fixed;" parent="JuaKtVvA1tjqQAxgrmdK-1" vertex="1">
          
          <mxGeometry x="280" y="480" width="80" height="80" as="geometry" />
          
        </mxCell>
        
        <mxCell id="JuaKtVvA1tjqQAxgrmdK-14" style="edgeStyle=orthogonalEdgeStyle;rounded=0;orthogonalLoop=1;jettySize=auto;html=1;exitX=0.5;exitY=0;exitDx=0;exitDy=0;entryX=0.5;entryY=1;entryDx=0;entryDy=0;" parent="JuaKtVvA1tjqQAxgrmdK-1" source="JuaKtVvA1tjqQAxgrmdK-15" target="JuaKtVvA1tjqQAxgrmdK-17" edge="1">
          
          <mxGeometry relative="1" as="geometry" />
          
        </mxCell>
        
        <mxCell id="JuaKtVvA1tjqQAxgrmdK-15" value="&lt;span style=&quot;white-space: normal&quot;&gt;$$\mathbf o_{t}$$&lt;/span&gt;" style="ellipse;whiteSpace=wrap;html=1;aspect=fixed;" parent="JuaKtVvA1tjqQAxgrmdK-1" vertex="1">
          
          <mxGeometry x="280" y="320" width="80" height="80" as="geometry" />
          
        </mxCell>
        
        <mxCell id="JuaKtVvA1tjqQAxgrmdK-16" style="edgeStyle=orthogonalEdgeStyle;rounded=0;orthogonalLoop=1;jettySize=auto;html=1;exitX=0.5;exitY=0;exitDx=0;exitDy=0;entryX=0.5;entryY=1;entryDx=0;entryDy=0;" parent="JuaKtVvA1tjqQAxgrmdK-1" source="JuaKtVvA1tjqQAxgrmdK-17" target="JuaKtVvA1tjqQAxgrmdK-18" edge="1">
          
          <mxGeometry relative="1" as="geometry" />
          
        </mxCell>
        
        <mxCell id="JuaKtVvA1tjqQAxgrmdK-17" value="&lt;span style=&quot;white-space: normal&quot;&gt;$$L_{t}$$&lt;/span&gt;" style="ellipse;whiteSpace=wrap;html=1;aspect=fixed;" parent="JuaKtVvA1tjqQAxgrmdK-1" vertex="1">
          
          <mxGeometry x="280" y="200" width="80" height="80" as="geometry" />
          
        </mxCell>
        
        <mxCell id="JuaKtVvA1tjqQAxgrmdK-18" value="&lt;span style=&quot;white-space: normal&quot;&gt;$$y_{t}$$&lt;/span&gt;" style="ellipse;whiteSpace=wrap;html=1;aspect=fixed;" parent="JuaKtVvA1tjqQAxgrmdK-1" vertex="1">
          
          <mxGeometry x="280" y="80" width="80" height="80" as="geometry" />
          
        </mxCell>
        
        <mxCell id="JuaKtVvA1tjqQAxgrmdK-19" style="edgeStyle=orthogonalEdgeStyle;rounded=0;orthogonalLoop=1;jettySize=auto;html=1;exitX=0.5;exitY=0;exitDx=0;exitDy=0;entryX=0.5;entryY=1;entryDx=0;entryDy=0;" parent="JuaKtVvA1tjqQAxgrmdK-1" source="JuaKtVvA1tjqQAxgrmdK-20" target="JuaKtVvA1tjqQAxgrmdK-13" edge="1">
          
          <mxGeometry relative="1" as="geometry" />
          
        </mxCell>
        
        <mxCell id="k6_Hyij2X_vBOaW3-swW-0" value="$$\mathbf U$$" style="text;html=1;align=center;verticalAlign=middle;resizable=0;points=[];labelBackgroundColor=#ffffff;" parent="JuaKtVvA1tjqQAxgrmdK-19" vertex="1" connectable="0">
          
          <mxGeometry x="-0.0444" y="-2" relative="1" as="geometry">
            
            <mxPoint as="offset" />
            
          </mxGeometry>
          
        </mxCell>
        
        <mxCell id="JuaKtVvA1tjqQAxgrmdK-20" value="$$\mathbf x_{t}$$" style="ellipse;whiteSpace=wrap;html=1;aspect=fixed;" parent="JuaKtVvA1tjqQAxgrmdK-1" vertex="1">
          
          <mxGeometry x="280" y="620" width="80" height="80" as="geometry" />
          
        </mxCell>
        
        <mxCell id="JuaKtVvA1tjqQAxgrmdK-21" style="edgeStyle=orthogonalEdgeStyle;rounded=0;orthogonalLoop=1;jettySize=auto;html=1;exitX=0.5;exitY=0;exitDx=0;exitDy=0;entryX=0.5;entryY=1;entryDx=0;entryDy=0;fontStyle=1" parent="JuaKtVvA1tjqQAxgrmdK-1" source="JuaKtVvA1tjqQAxgrmdK-22" target="JuaKtVvA1tjqQAxgrmdK-24" edge="1">
          
          <mxGeometry relative="1" as="geometry" />
          
        </mxCell>
        
        <mxCell id="JuaKtVvA1tjqQAxgrmdK-39" value="$$\mathbf V$$" style="text;html=1;align=center;verticalAlign=middle;resizable=0;points=[];labelBackgroundColor=#ffffff;" parent="JuaKtVvA1tjqQAxgrmdK-21" vertex="1" connectable="0">
          
          <mxGeometry x="-0.1583" relative="1" as="geometry">
            
            <mxPoint y="-6" as="offset" />
            
          </mxGeometry>
          
        </mxCell>
        
        <mxCell id="JuaKtVvA1tjqQAxgrmdK-32" style="edgeStyle=orthogonalEdgeStyle;rounded=0;orthogonalLoop=1;jettySize=auto;html=1;exitX=1;exitY=0.5;exitDx=0;exitDy=0;" parent="JuaKtVvA1tjqQAxgrmdK-1" source="JuaKtVvA1tjqQAxgrmdK-22" edge="1">
          
          <mxGeometry relative="1" as="geometry">
            
            <mxPoint x="600" y="520" as="targetPoint" />
            
          </mxGeometry>
          
        </mxCell>
        
        <mxCell id="JuaKtVvA1tjqQAxgrmdK-37" value="$$\mathbf W$$" style="text;html=1;align=center;verticalAlign=middle;resizable=0;points=[];labelBackgroundColor=#ffffff;" parent="JuaKtVvA1tjqQAxgrmdK-32" vertex="1" connectable="0">
          
          <mxGeometry x="0.025" y="-2" relative="1" as="geometry">
            
            <mxPoint as="offset" />
            
          </mxGeometry>
          
        </mxCell>
        
        <mxCell id="JuaKtVvA1tjqQAxgrmdK-22" value="&lt;span style=&quot;white-space: normal&quot;&gt;$$\mathbf h_{t+1}$$&lt;/span&gt;" style="ellipse;whiteSpace=wrap;html=1;aspect=fixed;fontStyle=1" parent="JuaKtVvA1tjqQAxgrmdK-1" vertex="1">
          
          <mxGeometry x="440" y="480" width="80" height="80" as="geometry" />
          
        </mxCell>
        
        <mxCell id="JuaKtVvA1tjqQAxgrmdK-23" style="edgeStyle=orthogonalEdgeStyle;rounded=0;orthogonalLoop=1;jettySize=auto;html=1;exitX=0.5;exitY=0;exitDx=0;exitDy=0;entryX=0.5;entryY=1;entryDx=0;entryDy=0;fontStyle=1" parent="JuaKtVvA1tjqQAxgrmdK-1" source="JuaKtVvA1tjqQAxgrmdK-24" target="JuaKtVvA1tjqQAxgrmdK-26" edge="1">
          
          <mxGeometry relative="1" as="geometry" />
          
        </mxCell>
        
        <mxCell id="JuaKtVvA1tjqQAxgrmdK-24" value="&lt;span style=&quot;white-space: normal&quot;&gt;$$\mathbf o_{t+1}$$&lt;/span&gt;" style="ellipse;whiteSpace=wrap;html=1;aspect=fixed;fontStyle=1" parent="JuaKtVvA1tjqQAxgrmdK-1" vertex="1">
          
          <mxGeometry x="440" y="320" width="80" height="80" as="geometry" />
          
        </mxCell>
        
        <mxCell id="JuaKtVvA1tjqQAxgrmdK-25" style="edgeStyle=orthogonalEdgeStyle;rounded=0;orthogonalLoop=1;jettySize=auto;html=1;exitX=0.5;exitY=0;exitDx=0;exitDy=0;entryX=0.5;entryY=1;entryDx=0;entryDy=0;fontStyle=1" parent="JuaKtVvA1tjqQAxgrmdK-1" source="JuaKtVvA1tjqQAxgrmdK-26" target="JuaKtVvA1tjqQAxgrmdK-27" edge="1">
          
          <mxGeometry relative="1" as="geometry" />
          
        </mxCell>
        
        <mxCell id="JuaKtVvA1tjqQAxgrmdK-26" value="&lt;span style=&quot;white-space: normal&quot;&gt;$$L_{t+1}$$&lt;/span&gt;" style="ellipse;whiteSpace=wrap;html=1;aspect=fixed;fontStyle=1" parent="JuaKtVvA1tjqQAxgrmdK-1" vertex="1">
          
          <mxGeometry x="440" y="200" width="80" height="80" as="geometry" />
          
        </mxCell>
        
        <mxCell id="JuaKtVvA1tjqQAxgrmdK-27" value="&lt;span style=&quot;white-space: normal&quot;&gt;$$y_{t+1}$$&lt;/span&gt;" style="ellipse;whiteSpace=wrap;html=1;aspect=fixed;fontStyle=1" parent="JuaKtVvA1tjqQAxgrmdK-1" vertex="1">
          
          <mxGeometry x="440" y="80" width="80" height="80" as="geometry" />
          
        </mxCell>
        
        <mxCell id="JuaKtVvA1tjqQAxgrmdK-28" style="edgeStyle=orthogonalEdgeStyle;rounded=0;orthogonalLoop=1;jettySize=auto;html=1;exitX=0.5;exitY=0;exitDx=0;exitDy=0;entryX=0.5;entryY=1;entryDx=0;entryDy=0;fontStyle=1" parent="JuaKtVvA1tjqQAxgrmdK-1" source="JuaKtVvA1tjqQAxgrmdK-29" target="JuaKtVvA1tjqQAxgrmdK-22" edge="1">
          
          <mxGeometry relative="1" as="geometry" />
          
        </mxCell>
        
        <mxCell id="k6_Hyij2X_vBOaW3-swW-1" value="$$\mathbf U$$" style="text;html=1;align=center;verticalAlign=middle;resizable=0;points=[];labelBackgroundColor=#ffffff;" parent="JuaKtVvA1tjqQAxgrmdK-28" vertex="1" connectable="0">
          
          <mxGeometry x="-0.1111" y="-1" relative="1" as="geometry">
            
            <mxPoint as="offset" />
            
          </mxGeometry>
          
        </mxCell>
        
        <mxCell id="JuaKtVvA1tjqQAxgrmdK-29" value="$$\mathbf x_{t+1}$$" style="ellipse;whiteSpace=wrap;html=1;aspect=fixed;fontStyle=1" parent="JuaKtVvA1tjqQAxgrmdK-1" vertex="1">
          
          <mxGeometry x="440" y="620" width="80" height="80" as="geometry" />
          
        </mxCell>
        
      </root>
      
    </mxGraphModel>
    
  </diagram>
  <diagram id="svPprZ8VGCWIrUfTfaUe" name="output-hidden-recursion">
    
    <mxGraphModel dx="599" dy="685" grid="1" gridSize="10" guides="1" tooltips="1" connect="1" arrows="1" fold="1" page="1" pageScale="1" pageWidth="1100" pageHeight="850" math="1" shadow="0">
      
      <root>
        
        <mxCell id="xWk239bcf9PCL0d0337z-0" />
        
        <mxCell id="xWk239bcf9PCL0d0337z-1" parent="xWk239bcf9PCL0d0337z-0" />
        
        <mxCell id="xWk239bcf9PCL0d0337z-2" style="edgeStyle=orthogonalEdgeStyle;rounded=0;orthogonalLoop=1;jettySize=auto;html=1;exitX=0.5;exitY=0;exitDx=0;exitDy=0;entryX=0.5;entryY=1;entryDx=0;entryDy=0;" parent="xWk239bcf9PCL0d0337z-1" source="xWk239bcf9PCL0d0337z-6" target="xWk239bcf9PCL0d0337z-8" edge="1">
          
          <mxGeometry relative="1" as="geometry" />
          
        </mxCell>
        
        <mxCell id="xWk239bcf9PCL0d0337z-3" value="$$\mathbf V$$" style="text;html=1;align=center;verticalAlign=middle;resizable=0;points=[];labelBackgroundColor=#ffffff;" parent="xWk239bcf9PCL0d0337z-2" vertex="1" connectable="0">
          
          <mxGeometry x="-0.4" y="-1" relative="1" as="geometry">
            
            <mxPoint x="-1" y="-16" as="offset" />
            
          </mxGeometry>
          
        </mxCell>
        
        <mxCell id="xWk239bcf9PCL0d0337z-4" style="rounded=0;orthogonalLoop=1;jettySize=auto;html=1;exitX=1;exitY=0.5;exitDx=0;exitDy=0;entryX=0;entryY=0.5;entryDx=0;entryDy=0;" parent="xWk239bcf9PCL0d0337z-1" source="xWk239bcf9PCL0d0337z-8" target="xWk239bcf9PCL0d0337z-20" edge="1">
          
          <mxGeometry relative="1" as="geometry" />
          
        </mxCell>
        
        <mxCell id="xWk239bcf9PCL0d0337z-5" value="$$\mathbf W$$" style="text;html=1;align=center;verticalAlign=middle;resizable=0;points=[];labelBackgroundColor=#ffffff;" parent="xWk239bcf9PCL0d0337z-4" vertex="1" connectable="0">
          
          <mxGeometry x="0.125" y="-1" relative="1" as="geometry">
            
            <mxPoint as="offset" />
            
          </mxGeometry>
          
        </mxCell>
        
        <mxCell id="xWk239bcf9PCL0d0337z-6" value="&lt;span style=&quot;white-space: normal&quot;&gt;$$\mathbf h_{t-1}$$&lt;/span&gt;" style="ellipse;whiteSpace=wrap;html=1;aspect=fixed;" parent="xWk239bcf9PCL0d0337z-1" vertex="1">
          
          <mxGeometry x="120" y="480" width="80" height="80" as="geometry" />
          
        </mxCell>
        
        <mxCell id="xWk239bcf9PCL0d0337z-7" style="edgeStyle=orthogonalEdgeStyle;rounded=0;orthogonalLoop=1;jettySize=auto;html=1;exitX=0.5;exitY=0;exitDx=0;exitDy=0;entryX=0.5;entryY=1;entryDx=0;entryDy=0;" parent="xWk239bcf9PCL0d0337z-1" source="xWk239bcf9PCL0d0337z-8" target="xWk239bcf9PCL0d0337z-10" edge="1">
          
          <mxGeometry relative="1" as="geometry" />
          
        </mxCell>
        
        <mxCell id="xWk239bcf9PCL0d0337z-8" value="&lt;span style=&quot;white-space: normal&quot;&gt;$$\mathbf o_{t-1}$$&lt;/span&gt;" style="ellipse;whiteSpace=wrap;html=1;aspect=fixed;" parent="xWk239bcf9PCL0d0337z-1" vertex="1">
          
          <mxGeometry x="120" y="320" width="80" height="80" as="geometry" />
          
        </mxCell>
        
        <mxCell id="xWk239bcf9PCL0d0337z-9" style="edgeStyle=orthogonalEdgeStyle;rounded=0;orthogonalLoop=1;jettySize=auto;html=1;exitX=0.5;exitY=0;exitDx=0;exitDy=0;entryX=0.5;entryY=1;entryDx=0;entryDy=0;" parent="xWk239bcf9PCL0d0337z-1" source="xWk239bcf9PCL0d0337z-10" target="xWk239bcf9PCL0d0337z-11" edge="1">
          
          <mxGeometry relative="1" as="geometry" />
          
        </mxCell>
        
        <mxCell id="xWk239bcf9PCL0d0337z-10" value="&lt;span style=&quot;white-space: normal&quot;&gt;$$L_{t-1}$$&lt;/span&gt;" style="ellipse;whiteSpace=wrap;html=1;aspect=fixed;" parent="xWk239bcf9PCL0d0337z-1" vertex="1">
          
          <mxGeometry x="120" y="200" width="80" height="80" as="geometry" />
          
        </mxCell>
        
        <mxCell id="xWk239bcf9PCL0d0337z-11" value="&lt;span style=&quot;white-space: normal&quot;&gt;$$y_{t-1}$$&lt;/span&gt;" style="ellipse;whiteSpace=wrap;html=1;aspect=fixed;" parent="xWk239bcf9PCL0d0337z-1" vertex="1">
          
          <mxGeometry x="120" y="80" width="80" height="80" as="geometry" />
          
        </mxCell>
        
        <mxCell id="xWk239bcf9PCL0d0337z-12" value="$$\mathbf U$$" style="edgeStyle=orthogonalEdgeStyle;rounded=0;orthogonalLoop=1;jettySize=auto;html=1;exitX=0.5;exitY=0;exitDx=0;exitDy=0;entryX=0.5;entryY=1;entryDx=0;entryDy=0;" parent="xWk239bcf9PCL0d0337z-1" source="xWk239bcf9PCL0d0337z-13" target="xWk239bcf9PCL0d0337z-6" edge="1">
          
          <mxGeometry relative="1" as="geometry" />
          
        </mxCell>
        
        <mxCell id="xWk239bcf9PCL0d0337z-13" value="$$\mathbf x_{t-1}$$" style="ellipse;whiteSpace=wrap;html=1;aspect=fixed;" parent="xWk239bcf9PCL0d0337z-1" vertex="1">
          
          <mxGeometry x="120" y="620" width="80" height="80" as="geometry" />
          
        </mxCell>
        
        <mxCell id="xWk239bcf9PCL0d0337z-14" value="" style="endArrow=classic;html=1;entryX=0;entryY=0.5;entryDx=0;entryDy=0;" parent="xWk239bcf9PCL0d0337z-1" target="xWk239bcf9PCL0d0337z-6" edge="1">
          
          <mxGeometry width="50" height="50" relative="1" as="geometry">
            
            <mxPoint x="40" y="360" as="sourcePoint" />
            
            <mxPoint x="170" y="700" as="targetPoint" />
            
          </mxGeometry>
          
        </mxCell>
        
        <mxCell id="xWk239bcf9PCL0d0337z-15" value="$$\mathbf W$$" style="text;html=1;align=center;verticalAlign=middle;resizable=0;points=[];labelBackgroundColor=#ffffff;" parent="xWk239bcf9PCL0d0337z-14" vertex="1" connectable="0">
          
          <mxGeometry x="0.1667" y="1" relative="1" as="geometry">
            
            <mxPoint as="offset" />
            
          </mxGeometry>
          
        </mxCell>
        
        <mxCell id="xWk239bcf9PCL0d0337z-16" style="edgeStyle=orthogonalEdgeStyle;rounded=0;orthogonalLoop=1;jettySize=auto;html=1;exitX=0.5;exitY=0;exitDx=0;exitDy=0;entryX=0.5;entryY=1;entryDx=0;entryDy=0;" parent="xWk239bcf9PCL0d0337z-1" source="xWk239bcf9PCL0d0337z-20" target="xWk239bcf9PCL0d0337z-22" edge="1">
          
          <mxGeometry relative="1" as="geometry" />
          
        </mxCell>
        
        <mxCell id="xWk239bcf9PCL0d0337z-17" value="$$\mathbf V$$" style="text;html=1;align=center;verticalAlign=middle;resizable=0;points=[];labelBackgroundColor=#ffffff;" parent="xWk239bcf9PCL0d0337z-16" vertex="1" connectable="0">
          
          <mxGeometry x="-0.125" relative="1" as="geometry">
            
            <mxPoint y="-5" as="offset" />
            
          </mxGeometry>
          
        </mxCell>
        
        <mxCell id="xWk239bcf9PCL0d0337z-18" style="rounded=0;orthogonalLoop=1;jettySize=auto;html=1;exitX=1;exitY=0.5;exitDx=0;exitDy=0;entryX=0;entryY=0.5;entryDx=0;entryDy=0;" parent="xWk239bcf9PCL0d0337z-1" source="xWk239bcf9PCL0d0337z-22" target="xWk239bcf9PCL0d0337z-32" edge="1">
          
          <mxGeometry relative="1" as="geometry" />
          
        </mxCell>
        
        <mxCell id="xWk239bcf9PCL0d0337z-19" value="$$\mathbf W$$" style="text;html=1;align=center;verticalAlign=middle;resizable=0;points=[];labelBackgroundColor=#ffffff;" parent="xWk239bcf9PCL0d0337z-18" vertex="1" connectable="0">
          
          <mxGeometry x="0.025" y="-1" relative="1" as="geometry">
            
            <mxPoint as="offset" />
            
          </mxGeometry>
          
        </mxCell>
        
        <mxCell id="xWk239bcf9PCL0d0337z-20" value="&lt;span style=&quot;white-space: normal&quot;&gt;$$\mathbf h_{t}$$&lt;/span&gt;" style="ellipse;whiteSpace=wrap;html=1;aspect=fixed;" parent="xWk239bcf9PCL0d0337z-1" vertex="1">
          
          <mxGeometry x="280" y="480" width="80" height="80" as="geometry" />
          
        </mxCell>
        
        <mxCell id="xWk239bcf9PCL0d0337z-21" style="edgeStyle=orthogonalEdgeStyle;rounded=0;orthogonalLoop=1;jettySize=auto;html=1;exitX=0.5;exitY=0;exitDx=0;exitDy=0;entryX=0.5;entryY=1;entryDx=0;entryDy=0;" parent="xWk239bcf9PCL0d0337z-1" source="xWk239bcf9PCL0d0337z-22" target="xWk239bcf9PCL0d0337z-24" edge="1">
          
          <mxGeometry relative="1" as="geometry" />
          
        </mxCell>
        
        <mxCell id="xWk239bcf9PCL0d0337z-22" value="&lt;span style=&quot;white-space: normal&quot;&gt;$$\mathbf o_{t}$$&lt;/span&gt;" style="ellipse;whiteSpace=wrap;html=1;aspect=fixed;" parent="xWk239bcf9PCL0d0337z-1" vertex="1">
          
          <mxGeometry x="280" y="320" width="80" height="80" as="geometry" />
          
        </mxCell>
        
        <mxCell id="xWk239bcf9PCL0d0337z-23" style="edgeStyle=orthogonalEdgeStyle;rounded=0;orthogonalLoop=1;jettySize=auto;html=1;exitX=0.5;exitY=0;exitDx=0;exitDy=0;entryX=0.5;entryY=1;entryDx=0;entryDy=0;" parent="xWk239bcf9PCL0d0337z-1" source="xWk239bcf9PCL0d0337z-24" target="xWk239bcf9PCL0d0337z-25" edge="1">
          
          <mxGeometry relative="1" as="geometry" />
          
        </mxCell>
        
        <mxCell id="xWk239bcf9PCL0d0337z-24" value="&lt;span style=&quot;white-space: normal&quot;&gt;$$L_{t}$$&lt;/span&gt;" style="ellipse;whiteSpace=wrap;html=1;aspect=fixed;" parent="xWk239bcf9PCL0d0337z-1" vertex="1">
          
          <mxGeometry x="280" y="200" width="80" height="80" as="geometry" />
          
        </mxCell>
        
        <mxCell id="xWk239bcf9PCL0d0337z-25" value="&lt;span style=&quot;white-space: normal&quot;&gt;$$y_{t}$$&lt;/span&gt;" style="ellipse;whiteSpace=wrap;html=1;aspect=fixed;" parent="xWk239bcf9PCL0d0337z-1" vertex="1">
          
          <mxGeometry x="280" y="80" width="80" height="80" as="geometry" />
          
        </mxCell>
        
        <mxCell id="xWk239bcf9PCL0d0337z-26" style="edgeStyle=orthogonalEdgeStyle;rounded=0;orthogonalLoop=1;jettySize=auto;html=1;exitX=0.5;exitY=0;exitDx=0;exitDy=0;entryX=0.5;entryY=1;entryDx=0;entryDy=0;" parent="xWk239bcf9PCL0d0337z-1" source="xWk239bcf9PCL0d0337z-27" target="xWk239bcf9PCL0d0337z-20" edge="1">
          
          <mxGeometry relative="1" as="geometry" />
          
        </mxCell>
        
        <mxCell id="s9IbJei1juBBMBtUCke6-0" value="$$\mathbf U$$" style="text;html=1;align=center;verticalAlign=middle;resizable=0;points=[];labelBackgroundColor=#ffffff;" parent="xWk239bcf9PCL0d0337z-26" vertex="1" connectable="0">
          
          <mxGeometry x="-0.0778" relative="1" as="geometry">
            
            <mxPoint as="offset" />
            
          </mxGeometry>
          
        </mxCell>
        
        <mxCell id="xWk239bcf9PCL0d0337z-27" value="$$\mathbf x_{t}$$" style="ellipse;whiteSpace=wrap;html=1;aspect=fixed;" parent="xWk239bcf9PCL0d0337z-1" vertex="1">
          
          <mxGeometry x="280" y="620" width="80" height="80" as="geometry" />
          
        </mxCell>
        
        <mxCell id="xWk239bcf9PCL0d0337z-28" style="edgeStyle=orthogonalEdgeStyle;rounded=0;orthogonalLoop=1;jettySize=auto;html=1;exitX=0.5;exitY=0;exitDx=0;exitDy=0;entryX=0.5;entryY=1;entryDx=0;entryDy=0;fontStyle=1" parent="xWk239bcf9PCL0d0337z-1" source="xWk239bcf9PCL0d0337z-32" target="xWk239bcf9PCL0d0337z-34" edge="1">
          
          <mxGeometry relative="1" as="geometry" />
          
        </mxCell>
        
        <mxCell id="xWk239bcf9PCL0d0337z-29" value="$$\mathbf V$$" style="text;html=1;align=center;verticalAlign=middle;resizable=0;points=[];labelBackgroundColor=#ffffff;" parent="xWk239bcf9PCL0d0337z-28" vertex="1" connectable="0">
          
          <mxGeometry x="-0.1583" relative="1" as="geometry">
            
            <mxPoint y="-6" as="offset" />
            
          </mxGeometry>
          
        </mxCell>
        
        <mxCell id="xWk239bcf9PCL0d0337z-30" style="rounded=0;orthogonalLoop=1;jettySize=auto;html=1;exitX=1;exitY=0.5;exitDx=0;exitDy=0;" parent="xWk239bcf9PCL0d0337z-1" source="xWk239bcf9PCL0d0337z-34" edge="1">
          
          <mxGeometry relative="1" as="geometry">
            
            <mxPoint x="600" y="520" as="targetPoint" />
            
          </mxGeometry>
          
        </mxCell>
        
        <mxCell id="xWk239bcf9PCL0d0337z-31" value="$$\mathbf W$$" style="text;html=1;align=center;verticalAlign=middle;resizable=0;points=[];labelBackgroundColor=#ffffff;" parent="xWk239bcf9PCL0d0337z-30" vertex="1" connectable="0">
          
          <mxGeometry x="0.025" y="-2" relative="1" as="geometry">
            
            <mxPoint as="offset" />
            
          </mxGeometry>
          
        </mxCell>
        
        <mxCell id="xWk239bcf9PCL0d0337z-32" value="&lt;span style=&quot;white-space: normal&quot;&gt;$$\mathbf h_{t+1}$$&lt;/span&gt;" style="ellipse;whiteSpace=wrap;html=1;aspect=fixed;fontStyle=1" parent="xWk239bcf9PCL0d0337z-1" vertex="1">
          
          <mxGeometry x="440" y="480" width="80" height="80" as="geometry" />
          
        </mxCell>
        
        <mxCell id="xWk239bcf9PCL0d0337z-33" style="edgeStyle=orthogonalEdgeStyle;rounded=0;orthogonalLoop=1;jettySize=auto;html=1;exitX=0.5;exitY=0;exitDx=0;exitDy=0;entryX=0.5;entryY=1;entryDx=0;entryDy=0;fontStyle=1" parent="xWk239bcf9PCL0d0337z-1" source="xWk239bcf9PCL0d0337z-34" target="xWk239bcf9PCL0d0337z-36" edge="1">
          
          <mxGeometry relative="1" as="geometry" />
          
        </mxCell>
        
        <mxCell id="xWk239bcf9PCL0d0337z-34" value="&lt;span style=&quot;white-space: normal&quot;&gt;$$\mathbf o_{t}$$&lt;/span&gt;" style="ellipse;whiteSpace=wrap;html=1;aspect=fixed;fontStyle=1" parent="xWk239bcf9PCL0d0337z-1" vertex="1">
          
          <mxGeometry x="440" y="320" width="80" height="80" as="geometry" />
          
        </mxCell>
        
        <mxCell id="xWk239bcf9PCL0d0337z-35" style="edgeStyle=orthogonalEdgeStyle;rounded=0;orthogonalLoop=1;jettySize=auto;html=1;exitX=0.5;exitY=0;exitDx=0;exitDy=0;entryX=0.5;entryY=1;entryDx=0;entryDy=0;fontStyle=1" parent="xWk239bcf9PCL0d0337z-1" source="xWk239bcf9PCL0d0337z-36" target="xWk239bcf9PCL0d0337z-37" edge="1">
          
          <mxGeometry relative="1" as="geometry" />
          
        </mxCell>
        
        <mxCell id="xWk239bcf9PCL0d0337z-36" value="&lt;span style=&quot;white-space: normal&quot;&gt;$$L_{t+1}$$&lt;/span&gt;" style="ellipse;whiteSpace=wrap;html=1;aspect=fixed;fontStyle=1" parent="xWk239bcf9PCL0d0337z-1" vertex="1">
          
          <mxGeometry x="440" y="200" width="80" height="80" as="geometry" />
          
        </mxCell>
        
        <mxCell id="xWk239bcf9PCL0d0337z-37" value="&lt;span style=&quot;white-space: normal&quot;&gt;$$y_{t+1}$$&lt;/span&gt;" style="ellipse;whiteSpace=wrap;html=1;aspect=fixed;fontStyle=1" parent="xWk239bcf9PCL0d0337z-1" vertex="1">
          
          <mxGeometry x="440" y="80" width="80" height="80" as="geometry" />
          
        </mxCell>
        
        <mxCell id="xWk239bcf9PCL0d0337z-38" style="edgeStyle=orthogonalEdgeStyle;rounded=0;orthogonalLoop=1;jettySize=auto;html=1;exitX=0.5;exitY=0;exitDx=0;exitDy=0;entryX=0.5;entryY=1;entryDx=0;entryDy=0;fontStyle=1" parent="xWk239bcf9PCL0d0337z-1" source="xWk239bcf9PCL0d0337z-39" target="xWk239bcf9PCL0d0337z-32" edge="1">
          
          <mxGeometry relative="1" as="geometry" />
          
        </mxCell>
        
        <mxCell id="s9IbJei1juBBMBtUCke6-1" value="$$\mathbf U$$" style="text;html=1;align=center;verticalAlign=middle;resizable=0;points=[];labelBackgroundColor=#ffffff;" parent="xWk239bcf9PCL0d0337z-38" vertex="1" connectable="0">
          
          <mxGeometry x="-0.0778" y="-1" relative="1" as="geometry">
            
            <mxPoint as="offset" />
            
          </mxGeometry>
          
        </mxCell>
        
        <mxCell id="xWk239bcf9PCL0d0337z-39" value="$$\mathbf x_{t+1}$$" style="ellipse;whiteSpace=wrap;html=1;aspect=fixed;fontStyle=1" parent="xWk239bcf9PCL0d0337z-1" vertex="1">
          
          <mxGeometry x="440" y="620" width="80" height="80" as="geometry" />
          
        </mxCell>
        
      </root>
      
    </mxGraphModel>
    
  </diagram>
  <diagram id="3JzcEZUPere_hhZgtDRO" name="BPTT">
    
    <mxGraphModel dx="1026" dy="526" grid="1" gridSize="10" guides="1" tooltips="1" connect="1" arrows="1" fold="1" page="1" pageScale="1" pageWidth="1100" pageHeight="850" math="1" shadow="0">
      
      <root>
        
        <mxCell id="uUpdAyy-MgbbAYwYIvmv-0" />
        
        <mxCell id="uUpdAyy-MgbbAYwYIvmv-1" parent="uUpdAyy-MgbbAYwYIvmv-0" />
        
        <mxCell id="uUpdAyy-MgbbAYwYIvmv-2" value="CE" style="ellipse;whiteSpace=wrap;html=1;aspect=fixed;fontSize=16;" parent="uUpdAyy-MgbbAYwYIvmv-1" vertex="1">
          
          <mxGeometry x="800" y="80" width="80" height="80" as="geometry" />
          
        </mxCell>
        
        <mxCell id="uUpdAyy-MgbbAYwYIvmv-4" style="edgeStyle=orthogonalEdgeStyle;rounded=0;orthogonalLoop=1;jettySize=auto;html=1;exitX=0.5;exitY=0;exitDx=0;exitDy=0;entryX=0.5;entryY=1;entryDx=0;entryDy=0;fontSize=16;" parent="uUpdAyy-MgbbAYwYIvmv-1" source="uUpdAyy-MgbbAYwYIvmv-3" target="uUpdAyy-MgbbAYwYIvmv-2" edge="1">
          
          <mxGeometry relative="1" as="geometry" />
          
        </mxCell>
        
        <mxCell id="uUpdAyy-MgbbAYwYIvmv-5" value="$$\hat{\mathbf y_t}$$" style="text;html=1;align=center;verticalAlign=middle;resizable=0;points=[];labelBackgroundColor=#ffffff;fontSize=16;" parent="uUpdAyy-MgbbAYwYIvmv-4" vertex="1" connectable="0">
          
          <mxGeometry x="-0.15" relative="1" as="geometry">
            
            <mxPoint as="offset" />
            
          </mxGeometry>
          
        </mxCell>
        
        <mxCell id="uUpdAyy-MgbbAYwYIvmv-3" value="SOFTMAX" style="ellipse;whiteSpace=wrap;html=1;aspect=fixed;fontSize=16;" parent="uUpdAyy-MgbbAYwYIvmv-1" vertex="1">
          
          <mxGeometry x="800" y="250" width="80" height="80" as="geometry" />
          
        </mxCell>
        
        <mxCell id="uUpdAyy-MgbbAYwYIvmv-8" value="" style="edgeStyle=orthogonalEdgeStyle;rounded=0;orthogonalLoop=1;jettySize=auto;html=1;fontSize=16;" parent="uUpdAyy-MgbbAYwYIvmv-1" target="uUpdAyy-MgbbAYwYIvmv-2" edge="1">
          
          <mxGeometry relative="1" as="geometry">
            
            <mxPoint x="720" y="120" as="sourcePoint" />
            
          </mxGeometry>
          
        </mxCell>
        
        <mxCell id="uUpdAyy-MgbbAYwYIvmv-9" value="$$\mathbf y_t$$" style="text;html=1;align=center;verticalAlign=middle;resizable=0;points=[];labelBackgroundColor=#ffffff;fontSize=16;" parent="uUpdAyy-MgbbAYwYIvmv-8" vertex="1" connectable="0">
          
          <mxGeometry x="-0.0361" y="-2" relative="1" as="geometry">
            
            <mxPoint y="-2" as="offset" />
            
          </mxGeometry>
          
        </mxCell>
        
        <mxCell id="uUpdAyy-MgbbAYwYIvmv-23" value="" style="edgeStyle=orthogonalEdgeStyle;rounded=0;orthogonalLoop=1;jettySize=auto;html=1;fontSize=16;" parent="uUpdAyy-MgbbAYwYIvmv-1" source="uUpdAyy-MgbbAYwYIvmv-22" target="uUpdAyy-MgbbAYwYIvmv-3" edge="1">
          
          <mxGeometry relative="1" as="geometry" />
          
        </mxCell>
        
        <mxCell id="uUpdAyy-MgbbAYwYIvmv-22" value="+" style="ellipse;whiteSpace=wrap;html=1;aspect=fixed;fontSize=16;" parent="uUpdAyy-MgbbAYwYIvmv-1" vertex="1">
          
          <mxGeometry x="800" y="360" width="80" height="80" as="geometry" />
          
        </mxCell>
        
        <mxCell id="uUpdAyy-MgbbAYwYIvmv-25" value="" style="edgeStyle=orthogonalEdgeStyle;rounded=0;orthogonalLoop=1;jettySize=auto;html=1;fontSize=16;" parent="uUpdAyy-MgbbAYwYIvmv-1" source="uUpdAyy-MgbbAYwYIvmv-24" target="uUpdAyy-MgbbAYwYIvmv-22" edge="1">
          
          <mxGeometry relative="1" as="geometry" />
          
        </mxCell>
        
        <mxCell id="uUpdAyy-MgbbAYwYIvmv-24" value="$$\mathbf V \mathbf h_t$$" style="ellipse;whiteSpace=wrap;html=1;aspect=fixed;fontSize=16;" parent="uUpdAyy-MgbbAYwYIvmv-1" vertex="1">
          
          <mxGeometry x="800" y="480" width="80" height="80" as="geometry" />
          
        </mxCell>
        
        <mxCell id="uUpdAyy-MgbbAYwYIvmv-27" value="" style="edgeStyle=orthogonalEdgeStyle;rounded=0;orthogonalLoop=1;jettySize=auto;html=1;fontSize=16;" parent="uUpdAyy-MgbbAYwYIvmv-1" source="uUpdAyy-MgbbAYwYIvmv-26" target="uUpdAyy-MgbbAYwYIvmv-24" edge="1">
          
          <mxGeometry relative="1" as="geometry" />
          
        </mxCell>
        
        <mxCell id="uUpdAyy-MgbbAYwYIvmv-43" value="$$\mathbf h_t$$" style="text;html=1;align=center;verticalAlign=middle;resizable=0;points=[];labelBackgroundColor=#ffffff;fontSize=16;" parent="uUpdAyy-MgbbAYwYIvmv-27" vertex="1" connectable="0">
          
          <mxGeometry x="-0.3667" relative="1" as="geometry">
            
            <mxPoint y="-15" as="offset" />
            
          </mxGeometry>
          
        </mxCell>
        
        <mxCell id="uUpdAyy-MgbbAYwYIvmv-26" value="$$\tanh$$" style="ellipse;whiteSpace=wrap;html=1;aspect=fixed;fontSize=16;" parent="uUpdAyy-MgbbAYwYIvmv-1" vertex="1">
          
          <mxGeometry x="800" y="700" width="80" height="80" as="geometry" />
          
        </mxCell>
        
        <mxCell id="uUpdAyy-MgbbAYwYIvmv-35" value="" style="edgeStyle=orthogonalEdgeStyle;rounded=0;orthogonalLoop=1;jettySize=auto;html=1;fontSize=16;" parent="uUpdAyy-MgbbAYwYIvmv-1" source="uUpdAyy-MgbbAYwYIvmv-28" target="uUpdAyy-MgbbAYwYIvmv-26" edge="1">
          
          <mxGeometry relative="1" as="geometry" />
          
        </mxCell>
        
        <mxCell id="uUpdAyy-MgbbAYwYIvmv-28" value="+" style="ellipse;whiteSpace=wrap;html=1;aspect=fixed;fontSize=16;" parent="uUpdAyy-MgbbAYwYIvmv-1" vertex="1">
          
          <mxGeometry x="800" y="820" width="80" height="80" as="geometry" />
          
        </mxCell>
        
        <mxCell id="uUpdAyy-MgbbAYwYIvmv-30" style="edgeStyle=orthogonalEdgeStyle;rounded=0;orthogonalLoop=1;jettySize=auto;html=1;entryX=0;entryY=0.5;entryDx=0;entryDy=0;fontSize=16;" parent="uUpdAyy-MgbbAYwYIvmv-1" source="uUpdAyy-MgbbAYwYIvmv-29" target="uUpdAyy-MgbbAYwYIvmv-28" edge="1">
          
          <mxGeometry relative="1" as="geometry" />
          
        </mxCell>
        
        <mxCell id="uUpdAyy-MgbbAYwYIvmv-29" value="&lt;span style=&quot;white-space: normal&quot;&gt;$$\mathbf W \mathbf h_{t-1}$$&lt;/span&gt;" style="ellipse;whiteSpace=wrap;html=1;aspect=fixed;fontSize=16;" parent="uUpdAyy-MgbbAYwYIvmv-1" vertex="1">
          
          <mxGeometry x="720" y="980" width="80" height="80" as="geometry" />
          
        </mxCell>
        
        <mxCell id="uUpdAyy-MgbbAYwYIvmv-32" style="edgeStyle=orthogonalEdgeStyle;rounded=0;orthogonalLoop=1;jettySize=auto;html=1;entryX=1;entryY=0.5;entryDx=0;entryDy=0;fontSize=16;" parent="uUpdAyy-MgbbAYwYIvmv-1" source="uUpdAyy-MgbbAYwYIvmv-31" target="uUpdAyy-MgbbAYwYIvmv-28" edge="1">
          
          <mxGeometry relative="1" as="geometry" />
          
        </mxCell>
        
        <mxCell id="uUpdAyy-MgbbAYwYIvmv-31" value="&lt;span style=&quot;white-space: normal&quot;&gt;$$\mathbf U \mathbf x_{t}$$&lt;/span&gt;" style="ellipse;whiteSpace=wrap;html=1;aspect=fixed;fontSize=16;" parent="uUpdAyy-MgbbAYwYIvmv-1" vertex="1">
          
          <mxGeometry x="880" y="980" width="80" height="80" as="geometry" />
          
        </mxCell>
        
        <mxCell id="uUpdAyy-MgbbAYwYIvmv-36" value="$$\mathbf b$$" style="endArrow=classic;html=1;fontSize=16;entryX=0.5;entryY=1;entryDx=0;entryDy=0;" parent="uUpdAyy-MgbbAYwYIvmv-1" target="uUpdAyy-MgbbAYwYIvmv-28" edge="1">
          
          <mxGeometry width="50" height="50" relative="1" as="geometry">
            
            <mxPoint x="840" y="980" as="sourcePoint" />
            
            <mxPoint x="920" y="800" as="targetPoint" />
            
          </mxGeometry>
          
        </mxCell>
        
        <mxCell id="uUpdAyy-MgbbAYwYIvmv-37" value="$$\mathbf W$$" style="endArrow=classic;html=1;fontSize=16;entryX=0.5;entryY=1;entryDx=0;entryDy=0;" parent="uUpdAyy-MgbbAYwYIvmv-1" edge="1">
          
          <mxGeometry x="0.0127" width="50" height="50" relative="1" as="geometry">
            
            <mxPoint x="640" y="1020" as="sourcePoint" />
            
            <mxPoint x="719" y="1020" as="targetPoint" />
            
            <mxPoint as="offset" />
            
          </mxGeometry>
          
        </mxCell>
        
        <mxCell id="uUpdAyy-MgbbAYwYIvmv-38" value="$$\mathbf h_{t-1}$$" style="endArrow=classic;html=1;fontSize=16;entryX=0.5;entryY=1;entryDx=0;entryDy=0;" parent="uUpdAyy-MgbbAYwYIvmv-1" edge="1">
          
          <mxGeometry width="50" height="50" relative="1" as="geometry">
            
            <mxPoint x="759.5" y="1140" as="sourcePoint" />
            
            <mxPoint x="759.5" y="1060" as="targetPoint" />
            
            <mxPoint as="offset" />
            
          </mxGeometry>
          
        </mxCell>
        
        <mxCell id="uUpdAyy-MgbbAYwYIvmv-39" value="$$\mathbf U$$" style="endArrow=classic;html=1;fontSize=16;entryX=0.5;entryY=1;entryDx=0;entryDy=0;" parent="uUpdAyy-MgbbAYwYIvmv-1" edge="1">
          
          <mxGeometry x="0.0127" width="50" height="50" relative="1" as="geometry">
            
            <mxPoint x="1060" y="1020" as="sourcePoint" />
            
            <mxPoint x="960" y="1019.5" as="targetPoint" />
            
            <mxPoint as="offset" />
            
          </mxGeometry>
          
        </mxCell>
        
        <mxCell id="uUpdAyy-MgbbAYwYIvmv-40" value="$$\mathbf x_{t}$$" style="endArrow=classic;html=1;fontSize=16;entryX=0.5;entryY=1;entryDx=0;entryDy=0;" parent="uUpdAyy-MgbbAYwYIvmv-1" edge="1">
          
          <mxGeometry width="50" height="50" relative="1" as="geometry">
            
            <mxPoint x="919.5" y="1140" as="sourcePoint" />
            
            <mxPoint x="919.5" y="1060" as="targetPoint" />
            
            <mxPoint as="offset" />
            
          </mxGeometry>
          
        </mxCell>
        
        <mxCell id="uUpdAyy-MgbbAYwYIvmv-41" value="$$\mathbf V$$" style="endArrow=classic;html=1;fontSize=16;entryX=0.5;entryY=1;entryDx=0;entryDy=0;" parent="uUpdAyy-MgbbAYwYIvmv-1" edge="1">
          
          <mxGeometry x="0.0127" width="50" height="50" relative="1" as="geometry">
            
            <mxPoint x="720" y="519.5" as="sourcePoint" />
            
            <mxPoint x="799" y="519.5" as="targetPoint" />
            
            <mxPoint as="offset" />
            
          </mxGeometry>
          
        </mxCell>
        
        <mxCell id="uUpdAyy-MgbbAYwYIvmv-42" value="$$\mathbf c$$" style="endArrow=classic;html=1;fontSize=16;entryX=0.5;entryY=1;entryDx=0;entryDy=0;" parent="uUpdAyy-MgbbAYwYIvmv-1" edge="1">
          
          <mxGeometry x="0.0127" width="50" height="50" relative="1" as="geometry">
            
            <mxPoint x="720" y="399.5" as="sourcePoint" />
            
            <mxPoint x="799" y="399.5" as="targetPoint" />
            
            <mxPoint as="offset" />
            
          </mxGeometry>
          
        </mxCell>
        
        <mxCell id="Mz63y2Skx3bBBAZWB9sU-0" value="" style="edgeStyle=orthogonalEdgeStyle;rounded=0;orthogonalLoop=1;jettySize=auto;html=1;fontSize=16;exitX=0.5;exitY=0;exitDx=0;exitDy=0;" edge="1" parent="uUpdAyy-MgbbAYwYIvmv-1" source="Mz63y2Skx3bBBAZWB9sU-2">
          
          <mxGeometry relative="1" as="geometry">
            
            <mxPoint x="390" y="10" as="targetPoint" />
            
          </mxGeometry>
          
        </mxCell>
        
        <mxCell id="Mz63y2Skx3bBBAZWB9sU-1" value="$$L_{t-1}$$" style="text;html=1;align=center;verticalAlign=middle;resizable=0;points=[];labelBackgroundColor=#ffffff;fontSize=16;" vertex="1" connectable="0" parent="Mz63y2Skx3bBBAZWB9sU-0">
          
          <mxGeometry x="0.3639" y="-2" relative="1" as="geometry">
            
            <mxPoint x="18" y="18" as="offset" />
            
          </mxGeometry>
          
        </mxCell>
        
        <mxCell id="Mz63y2Skx3bBBAZWB9sU-2" value="CE" style="ellipse;whiteSpace=wrap;html=1;aspect=fixed;fontSize=16;" vertex="1" parent="uUpdAyy-MgbbAYwYIvmv-1">
          
          <mxGeometry x="350" y="80" width="80" height="80" as="geometry" />
          
        </mxCell>
        
        <mxCell id="Mz63y2Skx3bBBAZWB9sU-3" style="edgeStyle=orthogonalEdgeStyle;rounded=0;orthogonalLoop=1;jettySize=auto;html=1;exitX=0.5;exitY=0;exitDx=0;exitDy=0;entryX=0.5;entryY=1;entryDx=0;entryDy=0;fontSize=16;" edge="1" parent="uUpdAyy-MgbbAYwYIvmv-1" source="Mz63y2Skx3bBBAZWB9sU-5" target="Mz63y2Skx3bBBAZWB9sU-2">
          
          <mxGeometry relative="1" as="geometry" />
          
        </mxCell>
        
        <mxCell id="Mz63y2Skx3bBBAZWB9sU-4" value="$$\hat{\mathbf y}_{t-1}$$" style="text;html=1;align=center;verticalAlign=middle;resizable=0;points=[];labelBackgroundColor=#ffffff;fontSize=16;" vertex="1" connectable="0" parent="Mz63y2Skx3bBBAZWB9sU-3">
          
          <mxGeometry x="-0.15" relative="1" as="geometry">
            
            <mxPoint as="offset" />
            
          </mxGeometry>
          
        </mxCell>
        
        <mxCell id="Mz63y2Skx3bBBAZWB9sU-5" value="SOFTMAX" style="ellipse;whiteSpace=wrap;html=1;aspect=fixed;fontSize=16;" vertex="1" parent="uUpdAyy-MgbbAYwYIvmv-1">
          
          <mxGeometry x="350" y="250" width="80" height="80" as="geometry" />
          
        </mxCell>
        
        <mxCell id="Mz63y2Skx3bBBAZWB9sU-6" value="" style="edgeStyle=orthogonalEdgeStyle;rounded=0;orthogonalLoop=1;jettySize=auto;html=1;fontSize=16;" edge="1" parent="uUpdAyy-MgbbAYwYIvmv-1" target="Mz63y2Skx3bBBAZWB9sU-2">
          
          <mxGeometry relative="1" as="geometry">
            
            <mxPoint x="270" y="120" as="sourcePoint" />
            
          </mxGeometry>
          
        </mxCell>
        
        <mxCell id="Mz63y2Skx3bBBAZWB9sU-7" value="$$\mathbf y_{t-1}$$" style="text;html=1;align=center;verticalAlign=middle;resizable=0;points=[];labelBackgroundColor=#ffffff;fontSize=16;" vertex="1" connectable="0" parent="Mz63y2Skx3bBBAZWB9sU-6">
          
          <mxGeometry x="-0.0361" y="-2" relative="1" as="geometry">
            
            <mxPoint y="-2" as="offset" />
            
          </mxGeometry>
          
        </mxCell>
        
        <mxCell id="Mz63y2Skx3bBBAZWB9sU-8" value="" style="edgeStyle=orthogonalEdgeStyle;rounded=0;orthogonalLoop=1;jettySize=auto;html=1;fontSize=16;" edge="1" parent="uUpdAyy-MgbbAYwYIvmv-1" source="Mz63y2Skx3bBBAZWB9sU-9" target="Mz63y2Skx3bBBAZWB9sU-5">
          
          <mxGeometry relative="1" as="geometry" />
          
        </mxCell>
        
        <mxCell id="Mz63y2Skx3bBBAZWB9sU-9" value="+" style="ellipse;whiteSpace=wrap;html=1;aspect=fixed;fontSize=16;" vertex="1" parent="uUpdAyy-MgbbAYwYIvmv-1">
          
          <mxGeometry x="350" y="360" width="80" height="80" as="geometry" />
          
        </mxCell>
        
        <mxCell id="Mz63y2Skx3bBBAZWB9sU-10" value="" style="edgeStyle=orthogonalEdgeStyle;rounded=0;orthogonalLoop=1;jettySize=auto;html=1;fontSize=16;" edge="1" parent="uUpdAyy-MgbbAYwYIvmv-1" source="Mz63y2Skx3bBBAZWB9sU-11" target="Mz63y2Skx3bBBAZWB9sU-9">
          
          <mxGeometry relative="1" as="geometry" />
          
        </mxCell>
        
        <mxCell id="Mz63y2Skx3bBBAZWB9sU-11" value="$$\mathbf V \mathbf h_{t-1}$$" style="ellipse;whiteSpace=wrap;html=1;aspect=fixed;fontSize=16;" vertex="1" parent="uUpdAyy-MgbbAYwYIvmv-1">
          
          <mxGeometry x="350" y="480" width="80" height="80" as="geometry" />
          
        </mxCell>
        
        <mxCell id="Mz63y2Skx3bBBAZWB9sU-12" value="" style="edgeStyle=orthogonalEdgeStyle;rounded=0;orthogonalLoop=1;jettySize=auto;html=1;fontSize=16;" edge="1" parent="uUpdAyy-MgbbAYwYIvmv-1" source="Mz63y2Skx3bBBAZWB9sU-14" target="Mz63y2Skx3bBBAZWB9sU-11">
          
          <mxGeometry relative="1" as="geometry" />
          
        </mxCell>
        
        <mxCell id="Mz63y2Skx3bBBAZWB9sU-13" value="$$\mathbf h_{t-1}$$" style="text;html=1;align=center;verticalAlign=middle;resizable=0;points=[];labelBackgroundColor=#ffffff;fontSize=16;" vertex="1" connectable="0" parent="Mz63y2Skx3bBBAZWB9sU-12">
          
          <mxGeometry x="-0.3667" relative="1" as="geometry">
            
            <mxPoint y="4" as="offset" />
            
          </mxGeometry>
          
        </mxCell>
        
        <mxCell id="Mz63y2Skx3bBBAZWB9sU-14" value="$$\tanh$$" style="ellipse;whiteSpace=wrap;html=1;aspect=fixed;fontSize=16;" vertex="1" parent="uUpdAyy-MgbbAYwYIvmv-1">
          
          <mxGeometry x="350" y="700" width="80" height="80" as="geometry" />
          
        </mxCell>
        
        <mxCell id="Mz63y2Skx3bBBAZWB9sU-15" value="" style="edgeStyle=orthogonalEdgeStyle;rounded=0;orthogonalLoop=1;jettySize=auto;html=1;fontSize=16;" edge="1" parent="uUpdAyy-MgbbAYwYIvmv-1" source="Mz63y2Skx3bBBAZWB9sU-16" target="Mz63y2Skx3bBBAZWB9sU-14">
          
          <mxGeometry relative="1" as="geometry" />
          
        </mxCell>
        
        <mxCell id="Mz63y2Skx3bBBAZWB9sU-16" value="+" style="ellipse;whiteSpace=wrap;html=1;aspect=fixed;fontSize=16;" vertex="1" parent="uUpdAyy-MgbbAYwYIvmv-1">
          
          <mxGeometry x="350" y="820" width="80" height="80" as="geometry" />
          
        </mxCell>
        
        <mxCell id="Mz63y2Skx3bBBAZWB9sU-17" style="edgeStyle=orthogonalEdgeStyle;rounded=0;orthogonalLoop=1;jettySize=auto;html=1;entryX=0;entryY=0.5;entryDx=0;entryDy=0;fontSize=16;" edge="1" parent="uUpdAyy-MgbbAYwYIvmv-1" source="Mz63y2Skx3bBBAZWB9sU-18" target="Mz63y2Skx3bBBAZWB9sU-16">
          
          <mxGeometry relative="1" as="geometry" />
          
        </mxCell>
        
        <mxCell id="Mz63y2Skx3bBBAZWB9sU-18" value="&lt;span style=&quot;white-space: normal&quot;&gt;$$\mathbf W \mathbf h_{t-2}$$&lt;/span&gt;" style="ellipse;whiteSpace=wrap;html=1;aspect=fixed;fontSize=16;" vertex="1" parent="uUpdAyy-MgbbAYwYIvmv-1">
          
          <mxGeometry x="270" y="980" width="80" height="80" as="geometry" />
          
        </mxCell>
        
        <mxCell id="Mz63y2Skx3bBBAZWB9sU-19" style="edgeStyle=orthogonalEdgeStyle;rounded=0;orthogonalLoop=1;jettySize=auto;html=1;entryX=1;entryY=0.5;entryDx=0;entryDy=0;fontSize=16;" edge="1" parent="uUpdAyy-MgbbAYwYIvmv-1" source="Mz63y2Skx3bBBAZWB9sU-20" target="Mz63y2Skx3bBBAZWB9sU-16">
          
          <mxGeometry relative="1" as="geometry" />
          
        </mxCell>
        
        <mxCell id="Mz63y2Skx3bBBAZWB9sU-20" value="&lt;span style=&quot;white-space: normal&quot;&gt;$$\mathbf U \mathbf x_{t-1}$$&lt;/span&gt;" style="ellipse;whiteSpace=wrap;html=1;aspect=fixed;fontSize=16;" vertex="1" parent="uUpdAyy-MgbbAYwYIvmv-1">
          
          <mxGeometry x="430" y="980" width="80" height="80" as="geometry" />
          
        </mxCell>
        
        <mxCell id="Mz63y2Skx3bBBAZWB9sU-21" value="$$\mathbf b$$" style="endArrow=classic;html=1;fontSize=16;entryX=0.5;entryY=1;entryDx=0;entryDy=0;" edge="1" parent="uUpdAyy-MgbbAYwYIvmv-1" target="Mz63y2Skx3bBBAZWB9sU-16">
          
          <mxGeometry width="50" height="50" relative="1" as="geometry">
            
            <mxPoint x="390" y="980" as="sourcePoint" />
            
            <mxPoint x="470" y="800" as="targetPoint" />
            
          </mxGeometry>
          
        </mxCell>
        
        <mxCell id="Mz63y2Skx3bBBAZWB9sU-22" value="$$\mathbf W$$" style="endArrow=classic;html=1;fontSize=16;entryX=0.5;entryY=1;entryDx=0;entryDy=0;" edge="1" parent="uUpdAyy-MgbbAYwYIvmv-1">
          
          <mxGeometry x="0.0127" width="50" height="50" relative="1" as="geometry">
            
            <mxPoint x="190" y="1020" as="sourcePoint" />
            
            <mxPoint x="269" y="1020" as="targetPoint" />
            
            <mxPoint as="offset" />
            
          </mxGeometry>
          
        </mxCell>
        
        <mxCell id="Mz63y2Skx3bBBAZWB9sU-23" value="$$\mathbf h_{t-2}$$" style="endArrow=classic;html=1;fontSize=16;entryX=0.5;entryY=1;entryDx=0;entryDy=0;" edge="1" parent="uUpdAyy-MgbbAYwYIvmv-1">
          
          <mxGeometry width="50" height="50" relative="1" as="geometry">
            
            <mxPoint x="309.5" y="1140" as="sourcePoint" />
            
            <mxPoint x="309.5" y="1060" as="targetPoint" />
            
            <mxPoint as="offset" />
            
          </mxGeometry>
          
        </mxCell>
        
        <mxCell id="Mz63y2Skx3bBBAZWB9sU-24" value="$$\mathbf U$$" style="endArrow=classic;html=1;fontSize=16;entryX=0.5;entryY=1;entryDx=0;entryDy=0;" edge="1" parent="uUpdAyy-MgbbAYwYIvmv-1">
          
          <mxGeometry x="0.0127" width="50" height="50" relative="1" as="geometry">
            
            <mxPoint x="610" y="1020" as="sourcePoint" />
            
            <mxPoint x="510" y="1019.5" as="targetPoint" />
            
            <mxPoint as="offset" />
            
          </mxGeometry>
          
        </mxCell>
        
        <mxCell id="Mz63y2Skx3bBBAZWB9sU-25" value="$$\mathbf x_{t-1}$$" style="endArrow=classic;html=1;fontSize=16;entryX=0.5;entryY=1;entryDx=0;entryDy=0;" edge="1" parent="uUpdAyy-MgbbAYwYIvmv-1">
          
          <mxGeometry width="50" height="50" relative="1" as="geometry">
            
            <mxPoint x="469.5" y="1140" as="sourcePoint" />
            
            <mxPoint x="469.5" y="1060" as="targetPoint" />
            
            <mxPoint as="offset" />
            
          </mxGeometry>
          
        </mxCell>
        
        <mxCell id="Mz63y2Skx3bBBAZWB9sU-26" value="$$\mathbf V$$" style="endArrow=classic;html=1;fontSize=16;entryX=0.5;entryY=1;entryDx=0;entryDy=0;" edge="1" parent="uUpdAyy-MgbbAYwYIvmv-1">
          
          <mxGeometry x="0.0127" width="50" height="50" relative="1" as="geometry">
            
            <mxPoint x="270" y="519.5" as="sourcePoint" />
            
            <mxPoint x="349" y="519.5" as="targetPoint" />
            
            <mxPoint as="offset" />
            
          </mxGeometry>
          
        </mxCell>
        
        <mxCell id="Mz63y2Skx3bBBAZWB9sU-27" value="$$\mathbf c$$" style="endArrow=classic;html=1;fontSize=16;entryX=0.5;entryY=1;entryDx=0;entryDy=0;" edge="1" parent="uUpdAyy-MgbbAYwYIvmv-1">
          
          <mxGeometry x="0.0127" width="50" height="50" relative="1" as="geometry">
            
            <mxPoint x="270" y="399.5" as="sourcePoint" />
            
            <mxPoint x="349" y="399.5" as="targetPoint" />
            
            <mxPoint as="offset" />
            
          </mxGeometry>
          
        </mxCell>
        
        <mxCell id="Mz63y2Skx3bBBAZWB9sU-28" value="" style="edgeStyle=orthogonalEdgeStyle;rounded=0;orthogonalLoop=1;jettySize=auto;html=1;fontSize=16;exitX=0.5;exitY=0;exitDx=0;exitDy=0;" edge="1" parent="uUpdAyy-MgbbAYwYIvmv-1" source="uUpdAyy-MgbbAYwYIvmv-2">
          
          <mxGeometry relative="1" as="geometry">
            
            <mxPoint x="840" y="10" as="targetPoint" />
            
            <mxPoint x="400" y="90" as="sourcePoint" />
            
          </mxGeometry>
          
        </mxCell>
        
        <mxCell id="Mz63y2Skx3bBBAZWB9sU-29" value="$$L_{t}$$" style="text;html=1;align=center;verticalAlign=middle;resizable=0;points=[];labelBackgroundColor=#ffffff;fontSize=16;" vertex="1" connectable="0" parent="Mz63y2Skx3bBBAZWB9sU-28">
          
          <mxGeometry x="0.3639" y="-2" relative="1" as="geometry">
            
            <mxPoint x="18" y="18" as="offset" />
            
          </mxGeometry>
          
        </mxCell>
        
        <mxCell id="Mz63y2Skx3bBBAZWB9sU-30" value="" style="endArrow=none;html=1;" edge="1" parent="uUpdAyy-MgbbAYwYIvmv-1">
          
          <mxGeometry width="50" height="50" relative="1" as="geometry">
            
            <mxPoint x="620" y="1140" as="sourcePoint" />
            
            <mxPoint x="760" y="1140" as="targetPoint" />
            
          </mxGeometry>
          
        </mxCell>
        
        <mxCell id="Mz63y2Skx3bBBAZWB9sU-31" value="" style="endArrow=none;html=1;strokeColor=#000000;" edge="1" parent="uUpdAyy-MgbbAYwYIvmv-1">
          
          <mxGeometry width="50" height="50" relative="1" as="geometry">
            
            <mxPoint x="390" y="630" as="sourcePoint" />
            
            <mxPoint x="620" y="630" as="targetPoint" />
            
          </mxGeometry>
          
        </mxCell>
        
        <mxCell id="Mz63y2Skx3bBBAZWB9sU-32" value="" style="endArrow=none;html=1;" edge="1" parent="uUpdAyy-MgbbAYwYIvmv-1">
          
          <mxGeometry width="50" height="50" relative="1" as="geometry">
            
            <mxPoint x="620" y="1140" as="sourcePoint" />
            
            <mxPoint x="620" y="630" as="targetPoint" />
            
          </mxGeometry>
          
        </mxCell>
        
      </root>
      
    </mxGraphModel>
    
  </diagram>
  <diagram id="0K2ehh99EyTuwmd4PMcX" name="IIR">
    
    <mxGraphModel dx="1026" dy="526" grid="1" gridSize="10" guides="1" tooltips="1" connect="1" arrows="1" fold="1" page="1" pageScale="1" pageWidth="1100" pageHeight="850" math="1" shadow="0">
      
      <root>
        
        <mxCell id="lhK2vFqHwkR2XVthVT4P-0" />
        
        <mxCell id="lhK2vFqHwkR2XVthVT4P-1" parent="lhK2vFqHwkR2XVthVT4P-0" />
        
        <mxCell id="lhK2vFqHwkR2XVthVT4P-2" value="+" style="ellipse;whiteSpace=wrap;html=1;aspect=fixed;fontSize=16;" vertex="1" parent="lhK2vFqHwkR2XVthVT4P-1">
          
          <mxGeometry x="120" y="80" width="80" height="80" as="geometry" />
          
        </mxCell>
        
        <mxCell id="lhK2vFqHwkR2XVthVT4P-3" value="" style="endArrow=classic;html=1;strokeColor=#000000;fontSize=16;entryX=0;entryY=0.5;entryDx=0;entryDy=0;" edge="1" parent="lhK2vFqHwkR2XVthVT4P-1" target="lhK2vFqHwkR2XVthVT4P-2">
          
          <mxGeometry width="50" height="50" relative="1" as="geometry">
            
            <mxPoint x="40" y="120" as="sourcePoint" />
            
            <mxPoint x="430" y="240" as="targetPoint" />
            
          </mxGeometry>
          
        </mxCell>
        
        <mxCell id="lhK2vFqHwkR2XVthVT4P-11" value="$$x_t$$" style="text;html=1;align=center;verticalAlign=middle;resizable=0;points=[];labelBackgroundColor=#ffffff;fontSize=16;" vertex="1" connectable="0" parent="lhK2vFqHwkR2XVthVT4P-3">
          
          <mxGeometry x="-0.5083" relative="1" as="geometry">
            
            <mxPoint as="offset" />
            
          </mxGeometry>
          
        </mxCell>
        
        <mxCell id="lhK2vFqHwkR2XVthVT4P-4" value="" style="endArrow=classic;html=1;strokeColor=#000000;fontSize=16;" edge="1" parent="lhK2vFqHwkR2XVthVT4P-1">
          
          <mxGeometry width="50" height="50" relative="1" as="geometry">
            
            <mxPoint x="200" y="119.5" as="sourcePoint" />
            
            <mxPoint x="480" y="120" as="targetPoint" />
            
          </mxGeometry>
          
        </mxCell>
        
        <mxCell id="lhK2vFqHwkR2XVthVT4P-12" value="$$h_t$$" style="text;html=1;align=center;verticalAlign=middle;resizable=0;points=[];labelBackgroundColor=#ffffff;fontSize=16;" vertex="1" connectable="0" parent="lhK2vFqHwkR2XVthVT4P-4">
          
          <mxGeometry x="0.6334" y="-2" relative="1" as="geometry">
            
            <mxPoint as="offset" />
            
          </mxGeometry>
          
        </mxCell>
        
        <mxCell id="lhK2vFqHwkR2XVthVT4P-9" value="" style="edgeStyle=orthogonalEdgeStyle;rounded=0;orthogonalLoop=1;jettySize=auto;html=1;startArrow=none;startFill=0;strokeColor=#000000;fontSize=16;" edge="1" parent="lhK2vFqHwkR2XVthVT4P-1" source="lhK2vFqHwkR2XVthVT4P-5" target="lhK2vFqHwkR2XVthVT4P-7">
          
          <mxGeometry relative="1" as="geometry" />
          
        </mxCell>
        
        <mxCell id="lhK2vFqHwkR2XVthVT4P-14" value="$$h_{t-1}$$" style="text;html=1;align=center;verticalAlign=middle;resizable=0;points=[];labelBackgroundColor=#ffffff;fontSize=16;" vertex="1" connectable="0" parent="lhK2vFqHwkR2XVthVT4P-9">
          
          <mxGeometry x="0.0833" y="1" relative="1" as="geometry">
            
            <mxPoint as="offset" />
            
          </mxGeometry>
          
        </mxCell>
        
        <mxCell id="lhK2vFqHwkR2XVthVT4P-5" value="D" style="whiteSpace=wrap;html=1;aspect=fixed;fontSize=16;" vertex="1" parent="lhK2vFqHwkR2XVthVT4P-1">
          
          <mxGeometry x="280" y="200" width="80" height="80" as="geometry" />
          
        </mxCell>
        
        <mxCell id="lhK2vFqHwkR2XVthVT4P-6" value="" style="endArrow=classic;html=1;strokeColor=#000000;fontSize=16;entryX=1;entryY=0.5;entryDx=0;entryDy=0;edgeStyle=orthogonalEdgeStyle;rounded=0;startArrow=oval;startFill=1;" edge="1" parent="lhK2vFqHwkR2XVthVT4P-1" target="lhK2vFqHwkR2XVthVT4P-5">
          
          <mxGeometry width="50" height="50" relative="1" as="geometry">
            
            <mxPoint x="400" y="120" as="sourcePoint" />
            
            <mxPoint x="410" y="240" as="targetPoint" />
            
            <Array as="points">
              
              <mxPoint x="400" y="240" />
              
            </Array>
            
          </mxGeometry>
          
        </mxCell>
        
        <mxCell id="lhK2vFqHwkR2XVthVT4P-8" value="" style="edgeStyle=orthogonalEdgeStyle;rounded=0;orthogonalLoop=1;jettySize=auto;html=1;startArrow=none;startFill=0;strokeColor=#000000;fontSize=16;" edge="1" parent="lhK2vFqHwkR2XVthVT4P-1" source="lhK2vFqHwkR2XVthVT4P-7" target="lhK2vFqHwkR2XVthVT4P-2">
          
          <mxGeometry relative="1" as="geometry" />
          
        </mxCell>
        
        <mxCell id="lhK2vFqHwkR2XVthVT4P-7" value="X" style="ellipse;whiteSpace=wrap;html=1;aspect=fixed;fontSize=16;" vertex="1" parent="lhK2vFqHwkR2XVthVT4P-1">
          
          <mxGeometry x="120" y="200" width="80" height="80" as="geometry" />
          
        </mxCell>
        
        <mxCell id="lhK2vFqHwkR2XVthVT4P-10" value="" style="edgeStyle=orthogonalEdgeStyle;rounded=0;orthogonalLoop=1;jettySize=auto;html=1;startArrow=oval;startFill=1;strokeColor=#000000;fontSize=16;" edge="1" parent="lhK2vFqHwkR2XVthVT4P-1">
          
          <mxGeometry relative="1" as="geometry">
            
            <mxPoint x="159.5" y="320" as="sourcePoint" />
            
            <mxPoint x="159.5" y="280" as="targetPoint" />
            
          </mxGeometry>
          
        </mxCell>
        
        <mxCell id="lhK2vFqHwkR2XVthVT4P-13" value="$$w$$" style="text;html=1;strokeColor=none;fillColor=none;align=center;verticalAlign=middle;whiteSpace=wrap;rounded=0;fontSize=16;" vertex="1" parent="lhK2vFqHwkR2XVthVT4P-1">
          
          <mxGeometry x="140" y="340" width="40" height="20" as="geometry" />
          
        </mxCell>
        
      </root>
      
    </mxGraphModel>
    
  </diagram>
  <diagram id="dR-Z09akiUHCFEwbGus6" name="LSTM">
    <mxGraphModel dx="1042" dy="662" grid="1" gridSize="10" guides="1" tooltips="1" connect="1" arrows="1" fold="1" page="1" pageScale="1" pageWidth="1100" pageHeight="850" math="1" shadow="0">
      <root>
        <mxCell id="Izs31WgHb809S4Ef_ud6-0" />
        <mxCell id="Izs31WgHb809S4Ef_ud6-1" parent="Izs31WgHb809S4Ef_ud6-0" />
        <mxCell id="Izs31WgHb809S4Ef_ud6-56" value="" style="rounded=1;whiteSpace=wrap;html=1;fontSize=25;fillColor=none;dashed=1;" parent="Izs31WgHb809S4Ef_ud6-1" vertex="1">
          <mxGeometry x="420" y="550" width="400" height="220" as="geometry" />
        </mxCell>
        <mxCell id="Izs31WgHb809S4Ef_ud6-60" value="" style="rounded=1;whiteSpace=wrap;html=1;fontSize=25;fillColor=none;dashed=1;" parent="Izs31WgHb809S4Ef_ud6-1" vertex="1">
          <mxGeometry x="430" y="100" width="400" height="220" as="geometry" />
        </mxCell>
        <mxCell id="Izs31WgHb809S4Ef_ud6-55" value="" style="rounded=1;whiteSpace=wrap;html=1;fontSize=25;fillColor=none;dashed=1;" parent="Izs31WgHb809S4Ef_ud6-1" vertex="1">
          <mxGeometry x="110" y="350" width="490" height="180" as="geometry" />
        </mxCell>
        <mxCell id="Izs31WgHb809S4Ef_ud6-14" value="" style="edgeStyle=orthogonalEdgeStyle;rounded=0;orthogonalLoop=1;jettySize=auto;html=1;startArrow=none;startFill=0;strokeColor=#000000;fontSize=14;" parent="Izs31WgHb809S4Ef_ud6-1" source="Izs31WgHb809S4Ef_ud6-2" target="Izs31WgHb809S4Ef_ud6-3" edge="1">
          <mxGeometry relative="1" as="geometry" />
        </mxCell>
        <mxCell id="Izs31WgHb809S4Ef_ud6-37" style="edgeStyle=orthogonalEdgeStyle;rounded=0;orthogonalLoop=1;jettySize=auto;html=1;entryX=0.5;entryY=1;entryDx=0;entryDy=0;startArrow=none;startFill=0;strokeColor=#000000;fontSize=14;" parent="Izs31WgHb809S4Ef_ud6-1" target="Izs31WgHb809S4Ef_ud6-7" edge="1">
          <mxGeometry relative="1" as="geometry">
            <mxPoint x="460" y="810" as="sourcePoint" />
          </mxGeometry>
        </mxCell>
        <mxCell id="Izs31WgHb809S4Ef_ud6-2" value="$$\sigma(\mathbf W, \mathbf U, \mathbf b)$$" style="ellipse;whiteSpace=wrap;html=1;aspect=fixed;fontSize=14;fillColor=none;strokeColor=#82b366;strokeWidth=5;" parent="Izs31WgHb809S4Ef_ud6-1" vertex="1">
          <mxGeometry x="480" y="670" width="80" height="80" as="geometry" />
        </mxCell>
        <mxCell id="Izs31WgHb809S4Ef_ud6-18" value="" style="edgeStyle=orthogonalEdgeStyle;rounded=0;orthogonalLoop=1;jettySize=auto;html=1;startArrow=none;startFill=0;strokeColor=#000000;fontSize=14;" parent="Izs31WgHb809S4Ef_ud6-1" source="Izs31WgHb809S4Ef_ud6-3" target="Izs31WgHb809S4Ef_ud6-6" edge="1">
          <mxGeometry relative="1" as="geometry" />
        </mxCell>
        <mxCell id="Izs31WgHb809S4Ef_ud6-3" value="X" style="ellipse;whiteSpace=wrap;html=1;aspect=fixed;fontSize=22;fillColor=none;strokeColor=#82b366;" parent="Izs31WgHb809S4Ef_ud6-1" vertex="1">
          <mxGeometry x="500" y="600" width="40" height="40" as="geometry" />
        </mxCell>
        <mxCell id="Izs31WgHb809S4Ef_ud6-23" style="edgeStyle=orthogonalEdgeStyle;rounded=0;orthogonalLoop=1;jettySize=auto;html=1;entryX=1;entryY=0.5;entryDx=0;entryDy=0;startArrow=none;startFill=0;strokeColor=#000000;fontSize=14;" parent="Izs31WgHb809S4Ef_ud6-1" source="Izs31WgHb809S4Ef_ud6-4" target="Izs31WgHb809S4Ef_ud6-3" edge="1">
          <mxGeometry relative="1" as="geometry" />
        </mxCell>
        <mxCell id="Izs31WgHb809S4Ef_ud6-4" value="&lt;span style=&quot;font-size: 15px;&quot;&gt;$$g_t=\sigma(\mathbf W_g, \mathbf U_g, \mathbf b_g)$$&lt;/span&gt;" style="ellipse;whiteSpace=wrap;html=1;aspect=fixed;fontSize=15;fillColor=#d5e8d4;strokeColor=#006600;strokeWidth=1;" parent="Izs31WgHb809S4Ef_ud6-1" vertex="1">
          <mxGeometry x="635" y="550" width="140" height="140" as="geometry" />
        </mxCell>
        <mxCell id="Izs31WgHb809S4Ef_ud6-30" style="edgeStyle=orthogonalEdgeStyle;rounded=0;orthogonalLoop=1;jettySize=auto;html=1;exitX=0.5;exitY=0;exitDx=0;exitDy=0;startArrow=none;startFill=0;strokeColor=#000000;fontSize=14;" parent="Izs31WgHb809S4Ef_ud6-1" source="Izs31WgHb809S4Ef_ud6-8" edge="1">
          <mxGeometry relative="1" as="geometry">
            <mxPoint x="520" y="80" as="targetPoint" />
          </mxGeometry>
        </mxCell>
        <mxCell id="Izs31WgHb809S4Ef_ud6-39" style="edgeStyle=orthogonalEdgeStyle;rounded=0;orthogonalLoop=1;jettySize=auto;html=1;entryX=1;entryY=0.5;entryDx=0;entryDy=0;startArrow=none;startFill=0;strokeColor=#000000;fontSize=14;exitX=0.5;exitY=0;exitDx=0;exitDy=0;" parent="Izs31WgHb809S4Ef_ud6-1" source="Izs31WgHb809S4Ef_ud6-5" target="Izs31WgHb809S4Ef_ud6-8" edge="1">
          <mxGeometry relative="1" as="geometry">
            <mxPoint x="540" y="70" as="targetPoint" />
            <Array as="points">
              <mxPoint x="705" y="130" />
            </Array>
          </mxGeometry>
        </mxCell>
        <mxCell id="Izs31WgHb809S4Ef_ud6-5" value="&lt;span style=&quot;font-size: 14px ; white-space: normal&quot;&gt;$$q_t=\sigma(\mathbf W_o, \mathbf U_o, \mathbf b_o)$$&lt;/span&gt;" style="ellipse;whiteSpace=wrap;html=1;aspect=fixed;fontSize=23;fillColor=#f8cecc;strokeColor=#b85450;" parent="Izs31WgHb809S4Ef_ud6-1" vertex="1">
          <mxGeometry x="640" y="170" width="130" height="130" as="geometry" />
        </mxCell>
        <mxCell id="Izs31WgHb809S4Ef_ud6-48" style="edgeStyle=orthogonalEdgeStyle;rounded=0;orthogonalLoop=1;jettySize=auto;html=1;startArrow=none;startFill=0;endArrow=classic;endFill=1;strokeColor=#000000;fontSize=14;entryX=0.5;entryY=1;entryDx=0;entryDy=0;exitX=0.5;exitY=0;exitDx=0;exitDy=0;" parent="Izs31WgHb809S4Ef_ud6-1" source="Izs31WgHb809S4Ef_ud6-6" target="Izs31WgHb809S4Ef_ud6-9" edge="1">
          <mxGeometry relative="1" as="geometry">
            <mxPoint x="520" y="250" as="targetPoint" />
            <mxPoint x="520" y="320" as="sourcePoint" />
          </mxGeometry>
        </mxCell>
        <mxCell id="Izs31WgHb809S4Ef_ud6-6" value="$$\mathbf s_t$$" style="ellipse;whiteSpace=wrap;html=1;aspect=fixed;fontSize=23;fillColor=none;strokeColor=#6c8ebf;strokeWidth=5;" parent="Izs31WgHb809S4Ef_ud6-1" vertex="1">
          <mxGeometry x="480" y="400" width="80" height="80" as="geometry" />
        </mxCell>
        <mxCell id="Izs31WgHb809S4Ef_ud6-35" style="edgeStyle=orthogonalEdgeStyle;rounded=0;orthogonalLoop=1;jettySize=auto;html=1;entryX=0;entryY=0.5;entryDx=0;entryDy=0;startArrow=none;startFill=0;strokeColor=#000000;fontSize=14;" parent="Izs31WgHb809S4Ef_ud6-1" source="Izs31WgHb809S4Ef_ud6-7" target="Izs31WgHb809S4Ef_ud6-10" edge="1">
          <mxGeometry relative="1" as="geometry" />
        </mxCell>
        <mxCell id="Izs31WgHb809S4Ef_ud6-7" value="$$f_t=\sigma(\mathbf W_f, \mathbf U_f, \mathbf b_f)$$" style="ellipse;whiteSpace=wrap;html=1;aspect=fixed;fontSize=14;fillColor=#dae8fc;strokeColor=#6c8ebf;" parent="Izs31WgHb809S4Ef_ud6-1" vertex="1">
          <mxGeometry x="140" y="370" width="140" height="140" as="geometry" />
        </mxCell>
        <mxCell id="Izs31WgHb809S4Ef_ud6-9" value="$$\mathbf h_t=\tanh(\mathbf s_t)$$" style="ellipse;whiteSpace=wrap;html=1;aspect=fixed;fontSize=14;fillColor=none;strokeColor=#b85450;strokeWidth=5;" parent="Izs31WgHb809S4Ef_ud6-1" vertex="1">
          <mxGeometry x="472.5" y="180" width="95" height="95" as="geometry" />
        </mxCell>
        <mxCell id="Izs31WgHb809S4Ef_ud6-36" style="edgeStyle=orthogonalEdgeStyle;rounded=0;orthogonalLoop=1;jettySize=auto;html=1;entryX=0;entryY=0.5;entryDx=0;entryDy=0;startArrow=none;startFill=0;strokeColor=#000000;fontSize=14;" parent="Izs31WgHb809S4Ef_ud6-1" source="Izs31WgHb809S4Ef_ud6-10" target="Izs31WgHb809S4Ef_ud6-6" edge="1">
          <mxGeometry relative="1" as="geometry" />
        </mxCell>
        <mxCell id="Izs31WgHb809S4Ef_ud6-10" value="X" style="ellipse;whiteSpace=wrap;html=1;aspect=fixed;fontSize=22;fillColor=none;strokeColor=#6c8ebf;" parent="Izs31WgHb809S4Ef_ud6-1" vertex="1">
          <mxGeometry x="360" y="420" width="40" height="40" as="geometry" />
        </mxCell>
        <mxCell id="Izs31WgHb809S4Ef_ud6-25" value="" style="endArrow=classic;html=1;strokeColor=#000000;fontSize=14;entryX=0.5;entryY=1;entryDx=0;entryDy=0;" parent="Izs31WgHb809S4Ef_ud6-1" target="Izs31WgHb809S4Ef_ud6-2" edge="1">
          <mxGeometry width="50" height="50" relative="1" as="geometry">
            <mxPoint x="520" y="800" as="sourcePoint" />
            <mxPoint x="490" y="580" as="targetPoint" />
          </mxGeometry>
        </mxCell>
        <mxCell id="Izs31WgHb809S4Ef_ud6-26" value="$$[\mathbf x_t, \mathbf h_{t-1}]$$" style="text;html=1;align=center;verticalAlign=middle;resizable=0;points=[];labelBackgroundColor=#ffffff;fontSize=21;" parent="Izs31WgHb809S4Ef_ud6-25" vertex="1" connectable="0">
          <mxGeometry x="-0.4861" y="2" relative="1" as="geometry">
            <mxPoint x="2" y="30" as="offset" />
          </mxGeometry>
        </mxCell>
        <mxCell id="Izs31WgHb809S4Ef_ud6-29" value="" style="endArrow=classic;html=1;strokeColor=#000000;fontSize=14;edgeStyle=orthogonalEdgeStyle;entryX=0.5;entryY=1;entryDx=0;entryDy=0;" parent="Izs31WgHb809S4Ef_ud6-1" target="Izs31WgHb809S4Ef_ud6-5" edge="1">
          <mxGeometry width="50" height="50" relative="1" as="geometry">
            <mxPoint x="580" y="810" as="sourcePoint" />
            <mxPoint x="490" y="510" as="targetPoint" />
            <Array as="points">
              <mxPoint x="850" y="810" />
              <mxPoint x="850" y="380" />
              <mxPoint x="705" y="380" />
            </Array>
          </mxGeometry>
        </mxCell>
        <mxCell id="Izs31WgHb809S4Ef_ud6-40" value="" style="endArrow=classic;html=1;strokeColor=#000000;fontSize=14;entryX=0.5;entryY=1;entryDx=0;entryDy=0;" parent="Izs31WgHb809S4Ef_ud6-1" target="Izs31WgHb809S4Ef_ud6-10" edge="1">
          <mxGeometry width="50" height="50" relative="1" as="geometry">
            <mxPoint x="380" y="710" as="sourcePoint" />
            <mxPoint x="490" y="440" as="targetPoint" />
          </mxGeometry>
        </mxCell>
        <mxCell id="Izs31WgHb809S4Ef_ud6-41" value="" style="endArrow=none;html=1;strokeColor=#000000;fontSize=14;endFill=0;" parent="Izs31WgHb809S4Ef_ud6-1" edge="1">
          <mxGeometry width="50" height="50" relative="1" as="geometry">
            <mxPoint x="380" y="760" as="sourcePoint" />
            <mxPoint x="380" y="700" as="targetPoint" />
          </mxGeometry>
        </mxCell>
        <mxCell id="Izs31WgHb809S4Ef_ud6-42" value="$$\mathbf s_{t-1}$$" style="text;html=1;strokeColor=none;fillColor=none;align=center;verticalAlign=middle;whiteSpace=wrap;rounded=0;fontSize=23;" parent="Izs31WgHb809S4Ef_ud6-1" vertex="1">
          <mxGeometry x="360" y="770" width="40" height="20" as="geometry" />
        </mxCell>
        <mxCell id="Izs31WgHb809S4Ef_ud6-45" value="" style="endArrow=classic;html=1;strokeColor=#000000;fontSize=23;edgeStyle=orthogonalEdgeStyle;startArrow=oval;startFill=1;" parent="Izs31WgHb809S4Ef_ud6-1" edge="1">
          <mxGeometry width="50" height="50" relative="1" as="geometry">
            <mxPoint x="520" y="390" as="sourcePoint" />
            <mxPoint x="380" y="80" as="targetPoint" />
          </mxGeometry>
        </mxCell>
        <mxCell id="Izs31WgHb809S4Ef_ud6-49" value="$$\mathbf s_t$$" style="text;html=1;strokeColor=none;fillColor=none;align=center;verticalAlign=middle;whiteSpace=wrap;rounded=0;fontSize=21;" parent="Izs31WgHb809S4Ef_ud6-1" vertex="1">
          <mxGeometry x="360" y="50" width="40" height="20" as="geometry" />
        </mxCell>
        <mxCell id="Izs31WgHb809S4Ef_ud6-50" value="INPUT" style="text;html=1;strokeColor=none;fillColor=none;align=center;verticalAlign=middle;whiteSpace=wrap;rounded=0;fontSize=25;" parent="Izs31WgHb809S4Ef_ud6-1" vertex="1">
          <mxGeometry x="580" y="640" width="40" height="20" as="geometry" />
        </mxCell>
        <mxCell id="Izs31WgHb809S4Ef_ud6-52" value="OUTPUT" style="text;html=1;strokeColor=none;fillColor=none;align=center;verticalAlign=middle;whiteSpace=wrap;rounded=0;fontSize=25;" parent="Izs31WgHb809S4Ef_ud6-1" vertex="1">
          <mxGeometry x="750" y="110" width="40" height="20" as="geometry" />
        </mxCell>
        <mxCell id="Izs31WgHb809S4Ef_ud6-53" value="CELL STATE" style="text;html=1;strokeColor=none;fillColor=none;align=center;verticalAlign=middle;whiteSpace=wrap;rounded=0;fontSize=25;" parent="Izs31WgHb809S4Ef_ud6-1" vertex="1">
          <mxGeometry x="430" y="470" width="40" height="20" as="geometry" />
        </mxCell>
        <mxCell id="Izs31WgHb809S4Ef_ud6-57" value="" style="endArrow=classic;html=1;strokeColor=#000000;fontSize=14;entryX=0.5;entryY=1;entryDx=0;entryDy=0;edgeStyle=orthogonalEdgeStyle;" parent="Izs31WgHb809S4Ef_ud6-1" target="Izs31WgHb809S4Ef_ud6-4" edge="1">
          <mxGeometry width="50" height="50" relative="1" as="geometry">
            <mxPoint x="590" y="810" as="sourcePoint" />
            <mxPoint x="769.9999999999993" y="320" as="targetPoint" />
            <Array as="points">
              <mxPoint x="705" y="810" />
            </Array>
          </mxGeometry>
        </mxCell>
        <mxCell id="Izs31WgHb809S4Ef_ud6-8" value="X" style="ellipse;whiteSpace=wrap;html=1;aspect=fixed;fontSize=22;fillColor=none;strokeColor=#b85450;" parent="Izs31WgHb809S4Ef_ud6-1" vertex="1">
          <mxGeometry x="500" y="110" width="40" height="40" as="geometry" />
        </mxCell>
        <mxCell id="Izs31WgHb809S4Ef_ud6-59" style="edgeStyle=orthogonalEdgeStyle;rounded=0;orthogonalLoop=1;jettySize=auto;html=1;exitX=0.5;exitY=0;exitDx=0;exitDy=0;startArrow=none;startFill=0;strokeColor=#000000;fontSize=14;" parent="Izs31WgHb809S4Ef_ud6-1" source="Izs31WgHb809S4Ef_ud6-9" target="Izs31WgHb809S4Ef_ud6-8" edge="1">
          <mxGeometry relative="1" as="geometry">
            <mxPoint x="520" y="175" as="sourcePoint" />
            <mxPoint x="520" y="90" as="targetPoint" />
          </mxGeometry>
        </mxCell>
        <mxCell id="Izs31WgHb809S4Ef_ud6-62" value="$$\mathbf h_t$$" style="text;html=1;strokeColor=none;fillColor=none;align=center;verticalAlign=middle;whiteSpace=wrap;rounded=0;dashed=1;fontSize=18;" parent="Izs31WgHb809S4Ef_ud6-1" vertex="1">
          <mxGeometry x="510" y="50" width="40" height="20" as="geometry" />
        </mxCell>
      </root>
    </mxGraphModel>
  </diagram>
  <diagram id="lnScK9QnEiu61Emdgvj9" name="LSTM-high-level">
    <mxGraphModel dx="1737" dy="1953" grid="1" gridSize="10" guides="1" tooltips="1" connect="1" arrows="1" fold="1" page="1" pageScale="1" pageWidth="1100" pageHeight="850" math="1" shadow="0">
      <root>
        <mxCell id="Y1q_z3fYerJlI4DKX37C-0" />
        <mxCell id="Y1q_z3fYerJlI4DKX37C-1" parent="Y1q_z3fYerJlI4DKX37C-0" />
        <mxCell id="cYeUQ6y9KAvZiZtBVfzN-1" value="" style="rounded=1;whiteSpace=wrap;html=1;fontSize=25;fillColor=none;dashed=1;" vertex="1" parent="Y1q_z3fYerJlI4DKX37C-1">
          <mxGeometry x="1030" y="305" width="180" height="435" as="geometry" />
        </mxCell>
        <mxCell id="cYeUQ6y9KAvZiZtBVfzN-0" value="" style="rounded=1;whiteSpace=wrap;html=1;fontSize=25;fillColor=none;dashed=1;" vertex="1" parent="Y1q_z3fYerJlI4DKX37C-1">
          <mxGeometry x="250" y="130" width="190" height="370" as="geometry" />
        </mxCell>
        <mxCell id="cYeUQ6y9KAvZiZtBVfzN-2" value="" style="rounded=1;whiteSpace=wrap;html=1;fontSize=25;fillColor=none;dashed=1;" vertex="1" parent="Y1q_z3fYerJlI4DKX37C-1">
          <mxGeometry x="550" y="30" width="210" height="480" as="geometry" />
        </mxCell>
        <mxCell id="cYeUQ6y9KAvZiZtBVfzN-5" value="$$\sigma(\mathbf W, \mathbf U, \mathbf b)$$" style="ellipse;whiteSpace=wrap;html=1;aspect=fixed;fontSize=17;fillColor=none;strokeColor=#82b366;strokeWidth=5;" vertex="1" parent="Y1q_z3fYerJlI4DKX37C-1">
          <mxGeometry x="110" y="355" width="130" height="130" as="geometry" />
        </mxCell>
        <mxCell id="cYeUQ6y9KAvZiZtBVfzN-7" value="X" style="ellipse;whiteSpace=wrap;html=1;aspect=fixed;fontSize=22;fillColor=none;strokeColor=#82b366;" vertex="1" parent="Y1q_z3fYerJlI4DKX37C-1">
          <mxGeometry x="320" y="400" width="40" height="40" as="geometry" />
        </mxCell>
        <mxCell id="cYeUQ6y9KAvZiZtBVfzN-3" value="" style="edgeStyle=orthogonalEdgeStyle;rounded=0;orthogonalLoop=1;jettySize=auto;html=1;startArrow=none;startFill=0;strokeColor=#000000;fontSize=14;" edge="1" source="cYeUQ6y9KAvZiZtBVfzN-5" target="cYeUQ6y9KAvZiZtBVfzN-7" parent="Y1q_z3fYerJlI4DKX37C-1">
          <mxGeometry relative="1" as="geometry" />
        </mxCell>
        <mxCell id="cYeUQ6y9KAvZiZtBVfzN-8" style="edgeStyle=orthogonalEdgeStyle;rounded=0;orthogonalLoop=1;jettySize=auto;html=1;entryX=0.5;entryY=0;entryDx=0;entryDy=0;startArrow=none;startFill=0;strokeColor=#000000;fontSize=14;" edge="1" source="cYeUQ6y9KAvZiZtBVfzN-9" target="cYeUQ6y9KAvZiZtBVfzN-7" parent="Y1q_z3fYerJlI4DKX37C-1">
          <mxGeometry relative="1" as="geometry" />
        </mxCell>
        <mxCell id="cYeUQ6y9KAvZiZtBVfzN-9" value="&lt;span style=&quot;font-size: 15px;&quot;&gt;$$g_t=\sigma(\mathbf W_g, \mathbf U_g, \mathbf b_g)$$&lt;/span&gt;" style="ellipse;whiteSpace=wrap;html=1;aspect=fixed;fontSize=15;fillColor=#d5e8d4;strokeColor=#006600;strokeWidth=1;" vertex="1" parent="Y1q_z3fYerJlI4DKX37C-1">
          <mxGeometry x="260" y="145" width="160" height="160" as="geometry" />
        </mxCell>
        <mxCell id="cYeUQ6y9KAvZiZtBVfzN-39" style="edgeStyle=orthogonalEdgeStyle;rounded=0;orthogonalLoop=1;jettySize=auto;html=1;entryX=0.5;entryY=1;entryDx=0;entryDy=0;" edge="1" parent="Y1q_z3fYerJlI4DKX37C-1" source="cYeUQ6y9KAvZiZtBVfzN-12" target="cYeUQ6y9KAvZiZtBVfzN-32">
          <mxGeometry relative="1" as="geometry" />
        </mxCell>
        <mxCell id="cYeUQ6y9KAvZiZtBVfzN-12" value="&lt;span style=&quot;font-size: 14px ; white-space: normal&quot;&gt;$$q_t=\sigma(\mathbf W_o, \mathbf U_o, \mathbf b_o)$$&lt;/span&gt;" style="ellipse;whiteSpace=wrap;html=1;aspect=fixed;fontSize=23;fillColor=#f8cecc;strokeColor=#b85450;" vertex="1" parent="Y1q_z3fYerJlI4DKX37C-1">
          <mxGeometry x="1032.5" y="540" width="155" height="155" as="geometry" />
        </mxCell>
        <mxCell id="cYeUQ6y9KAvZiZtBVfzN-46" style="edgeStyle=orthogonalEdgeStyle;rounded=0;orthogonalLoop=1;jettySize=auto;html=1;exitX=1;exitY=0.5;exitDx=0;exitDy=0;entryX=0.5;entryY=1;entryDx=0;entryDy=0;fontSize=15;" edge="1" parent="Y1q_z3fYerJlI4DKX37C-1" source="cYeUQ6y9KAvZiZtBVfzN-14" target="cYeUQ6y9KAvZiZtBVfzN-42">
          <mxGeometry relative="1" as="geometry" />
        </mxCell>
        <mxCell id="cYeUQ6y9KAvZiZtBVfzN-14" value="$$\mathbf s_t$$" style="ellipse;whiteSpace=wrap;html=1;aspect=fixed;fontSize=23;fillColor=none;strokeColor=#6c8ebf;strokeWidth=5;" vertex="1" parent="Y1q_z3fYerJlI4DKX37C-1">
          <mxGeometry x="630" y="380" width="80" height="80" as="geometry" />
        </mxCell>
        <mxCell id="cYeUQ6y9KAvZiZtBVfzN-6" value="" style="edgeStyle=orthogonalEdgeStyle;rounded=0;orthogonalLoop=1;jettySize=auto;html=1;startArrow=none;startFill=0;strokeColor=#000000;fontSize=14;exitX=1;exitY=0.5;exitDx=0;exitDy=0;" edge="1" source="cYeUQ6y9KAvZiZtBVfzN-7" target="cYeUQ6y9KAvZiZtBVfzN-14" parent="Y1q_z3fYerJlI4DKX37C-1">
          <mxGeometry relative="1" as="geometry" />
        </mxCell>
        <mxCell id="cYeUQ6y9KAvZiZtBVfzN-16" value="$$f_t=\sigma(\mathbf W_f, \mathbf U_f, \mathbf b_f)$$" style="ellipse;whiteSpace=wrap;html=1;aspect=fixed;fontSize=14;fillColor=#dae8fc;strokeColor=#6c8ebf;" vertex="1" parent="Y1q_z3fYerJlI4DKX37C-1">
          <mxGeometry x="595" y="50" width="150" height="150" as="geometry" />
        </mxCell>
        <mxCell id="cYeUQ6y9KAvZiZtBVfzN-17" value="$$\mathbf h_t=\tanh(\mathbf s_t)$$" style="ellipse;whiteSpace=wrap;html=1;aspect=fixed;fontSize=16;fillColor=none;strokeColor=#b85450;strokeWidth=5;" vertex="1" parent="Y1q_z3fYerJlI4DKX37C-1">
          <mxGeometry x="890" y="357.5" width="125" height="125" as="geometry" />
        </mxCell>
        <mxCell id="cYeUQ6y9KAvZiZtBVfzN-13" style="edgeStyle=orthogonalEdgeStyle;rounded=0;orthogonalLoop=1;jettySize=auto;html=1;startArrow=none;startFill=0;endArrow=classic;endFill=1;strokeColor=#000000;fontSize=14;entryX=0;entryY=0.5;entryDx=0;entryDy=0;exitX=1;exitY=0.5;exitDx=0;exitDy=0;" edge="1" source="cYeUQ6y9KAvZiZtBVfzN-14" target="cYeUQ6y9KAvZiZtBVfzN-17" parent="Y1q_z3fYerJlI4DKX37C-1">
          <mxGeometry relative="1" as="geometry">
            <mxPoint x="670" y="230" as="targetPoint" />
            <mxPoint x="670" y="300" as="sourcePoint" />
          </mxGeometry>
        </mxCell>
        <mxCell id="cYeUQ6y9KAvZiZtBVfzN-18" style="edgeStyle=orthogonalEdgeStyle;rounded=0;orthogonalLoop=1;jettySize=auto;html=1;entryX=0.5;entryY=0;entryDx=0;entryDy=0;startArrow=none;startFill=0;strokeColor=#000000;fontSize=14;" edge="1" source="cYeUQ6y9KAvZiZtBVfzN-19" target="cYeUQ6y9KAvZiZtBVfzN-14" parent="Y1q_z3fYerJlI4DKX37C-1">
          <mxGeometry relative="1" as="geometry" />
        </mxCell>
        <mxCell id="cYeUQ6y9KAvZiZtBVfzN-19" value="X" style="ellipse;whiteSpace=wrap;html=1;aspect=fixed;fontSize=22;fillColor=none;strokeColor=#6c8ebf;" vertex="1" parent="Y1q_z3fYerJlI4DKX37C-1">
          <mxGeometry x="650" y="265" width="40" height="40" as="geometry" />
        </mxCell>
        <mxCell id="cYeUQ6y9KAvZiZtBVfzN-15" style="edgeStyle=orthogonalEdgeStyle;rounded=0;orthogonalLoop=1;jettySize=auto;html=1;entryX=0.5;entryY=0;entryDx=0;entryDy=0;startArrow=none;startFill=0;strokeColor=#000000;fontSize=14;" edge="1" source="cYeUQ6y9KAvZiZtBVfzN-16" target="cYeUQ6y9KAvZiZtBVfzN-19" parent="Y1q_z3fYerJlI4DKX37C-1">
          <mxGeometry relative="1" as="geometry" />
        </mxCell>
        <mxCell id="cYeUQ6y9KAvZiZtBVfzN-20" value="" style="endArrow=classic;html=1;strokeColor=#000000;fontSize=14;entryX=0.5;entryY=0;entryDx=0;entryDy=0;exitX=0;exitY=0.5;exitDx=0;exitDy=0;edgeStyle=orthogonalEdgeStyle;rounded=0;" edge="1" target="cYeUQ6y9KAvZiZtBVfzN-5" parent="Y1q_z3fYerJlI4DKX37C-1" source="cYeUQ6y9KAvZiZtBVfzN-51">
          <mxGeometry width="50" height="50" relative="1" as="geometry">
            <mxPoint x="70" y="610" as="sourcePoint" />
            <mxPoint x="40" y="390" as="targetPoint" />
            <Array as="points">
              <mxPoint x="175" y="5" />
            </Array>
          </mxGeometry>
        </mxCell>
        <mxCell id="cYeUQ6y9KAvZiZtBVfzN-21" value="$$\mathbf x_t$$" style="text;html=1;align=center;verticalAlign=middle;resizable=0;points=[];labelBackgroundColor=#ffffff;fontSize=21;" vertex="1" connectable="0" parent="cYeUQ6y9KAvZiZtBVfzN-20">
          <mxGeometry x="-0.4861" y="2" relative="1" as="geometry">
            <mxPoint x="-360" y="-377" as="offset" />
          </mxGeometry>
        </mxCell>
        <mxCell id="cYeUQ6y9KAvZiZtBVfzN-25" value="$$\mathbf s_{t-1}$$" style="text;html=1;strokeColor=none;fillColor=none;align=center;verticalAlign=middle;whiteSpace=wrap;rounded=0;fontSize=23;" vertex="1" parent="Y1q_z3fYerJlI4DKX37C-1">
          <mxGeometry x="770" y="80" width="40" height="20" as="geometry" />
        </mxCell>
        <mxCell id="cYeUQ6y9KAvZiZtBVfzN-26" value="" style="endArrow=classic;html=1;strokeColor=#000000;fontSize=23;edgeStyle=orthogonalEdgeStyle;startArrow=oval;startFill=1;entryX=1;entryY=0.5;entryDx=0;entryDy=0;exitX=0.5;exitY=0;exitDx=0;exitDy=0;" edge="1" parent="Y1q_z3fYerJlI4DKX37C-1" source="cYeUQ6y9KAvZiZtBVfzN-42" target="cYeUQ6y9KAvZiZtBVfzN-16">
          <mxGeometry width="50" height="50" relative="1" as="geometry">
            <mxPoint x="850" y="420" as="sourcePoint" />
            <mxPoint x="750" y="70" as="targetPoint" />
            <Array as="points" />
          </mxGeometry>
        </mxCell>
        <mxCell id="cYeUQ6y9KAvZiZtBVfzN-27" value="$$\mathbf s_t$$" style="text;html=1;strokeColor=none;fillColor=none;align=center;verticalAlign=middle;whiteSpace=wrap;rounded=0;fontSize=21;" vertex="1" parent="Y1q_z3fYerJlI4DKX37C-1">
          <mxGeometry x="785" y="390" width="40" height="20" as="geometry" />
        </mxCell>
        <mxCell id="cYeUQ6y9KAvZiZtBVfzN-28" value="INPUT" style="text;html=1;strokeColor=none;fillColor=none;align=center;verticalAlign=middle;whiteSpace=wrap;rounded=0;fontSize=25;" vertex="1" parent="Y1q_z3fYerJlI4DKX37C-1">
          <mxGeometry x="280" y="467.5" width="40" height="20" as="geometry" />
        </mxCell>
        <mxCell id="cYeUQ6y9KAvZiZtBVfzN-29" value="OUTPUT" style="text;html=1;strokeColor=none;fillColor=none;align=center;verticalAlign=middle;whiteSpace=wrap;rounded=0;fontSize=25;" vertex="1" parent="Y1q_z3fYerJlI4DKX37C-1">
          <mxGeometry x="1090" y="320" width="40" height="20" as="geometry" />
        </mxCell>
        <mxCell id="cYeUQ6y9KAvZiZtBVfzN-30" value="CELL STATE" style="text;html=1;strokeColor=none;fillColor=none;align=center;verticalAlign=middle;whiteSpace=wrap;rounded=0;fontSize=25;" vertex="1" parent="Y1q_z3fYerJlI4DKX37C-1">
          <mxGeometry x="580" y="450" width="40" height="20" as="geometry" />
        </mxCell>
        <mxCell id="cYeUQ6y9KAvZiZtBVfzN-49" style="edgeStyle=orthogonalEdgeStyle;rounded=0;orthogonalLoop=1;jettySize=auto;html=1;fontSize=15;" edge="1" parent="Y1q_z3fYerJlI4DKX37C-1" source="cYeUQ6y9KAvZiZtBVfzN-32">
          <mxGeometry relative="1" as="geometry">
            <mxPoint x="1310" y="420" as="targetPoint" />
          </mxGeometry>
        </mxCell>
        <mxCell id="cYeUQ6y9KAvZiZtBVfzN-32" value="X" style="ellipse;whiteSpace=wrap;html=1;aspect=fixed;fontSize=22;fillColor=none;strokeColor=#b85450;" vertex="1" parent="Y1q_z3fYerJlI4DKX37C-1">
          <mxGeometry x="1090" y="400" width="40" height="40" as="geometry" />
        </mxCell>
        <mxCell id="cYeUQ6y9KAvZiZtBVfzN-33" style="edgeStyle=orthogonalEdgeStyle;rounded=0;orthogonalLoop=1;jettySize=auto;html=1;exitX=1;exitY=0.5;exitDx=0;exitDy=0;startArrow=none;startFill=0;strokeColor=#000000;fontSize=14;" edge="1" source="cYeUQ6y9KAvZiZtBVfzN-17" target="cYeUQ6y9KAvZiZtBVfzN-32" parent="Y1q_z3fYerJlI4DKX37C-1">
          <mxGeometry relative="1" as="geometry">
            <mxPoint x="600" y="155" as="sourcePoint" />
            <mxPoint x="600" y="70" as="targetPoint" />
          </mxGeometry>
        </mxCell>
        <mxCell id="cYeUQ6y9KAvZiZtBVfzN-34" value="$$\mathbf h_t$$" style="text;html=1;strokeColor=none;fillColor=none;align=center;verticalAlign=middle;whiteSpace=wrap;rounded=0;dashed=1;fontSize=18;" vertex="1" parent="Y1q_z3fYerJlI4DKX37C-1">
          <mxGeometry x="1260" y="390" width="40" height="20" as="geometry" />
        </mxCell>
        <mxCell id="cYeUQ6y9KAvZiZtBVfzN-42" value="D" style="rounded=0;whiteSpace=wrap;html=1;fontSize=15;" vertex="1" parent="Y1q_z3fYerJlI4DKX37C-1">
          <mxGeometry x="825" y="210" width="60" height="50" as="geometry" />
        </mxCell>
        <mxCell id="cYeUQ6y9KAvZiZtBVfzN-51" value="D" style="rounded=0;whiteSpace=wrap;html=1;fontSize=15;" vertex="1" parent="Y1q_z3fYerJlI4DKX37C-1">
          <mxGeometry x="870" y="-30" width="60" height="70" as="geometry" />
        </mxCell>
        <mxCell id="cYeUQ6y9KAvZiZtBVfzN-59" value="" style="endArrow=classic;html=1;fontSize=15;entryX=1;entryY=0.5;entryDx=0;entryDy=0;exitX=1;exitY=0.5;exitDx=0;exitDy=0;edgeStyle=orthogonalEdgeStyle;rounded=0;" edge="1" parent="Y1q_z3fYerJlI4DKX37C-1" source="cYeUQ6y9KAvZiZtBVfzN-32" target="cYeUQ6y9KAvZiZtBVfzN-51">
          <mxGeometry width="50" height="50" relative="1" as="geometry">
            <mxPoint x="770" y="770" as="sourcePoint" />
            <mxPoint x="820" y="720" as="targetPoint" />
            <Array as="points">
              <mxPoint x="1250" y="420" />
              <mxPoint x="1250" y="5" />
            </Array>
          </mxGeometry>
        </mxCell>
        <mxCell id="cYeUQ6y9KAvZiZtBVfzN-63" value="&lt;span style=&quot;font-size: 21px ; background-color: rgb(255 , 255 , 255)&quot;&gt;$$\mathbf h_{t-1}$$&lt;/span&gt;" style="text;html=1;strokeColor=none;fillColor=none;align=center;verticalAlign=middle;whiteSpace=wrap;rounded=0;fontSize=15;" vertex="1" parent="Y1q_z3fYerJlI4DKX37C-1">
          <mxGeometry x="580" y="-40" width="40" height="20" as="geometry" />
        </mxCell>
        <mxCell id="cYeUQ6y9KAvZiZtBVfzN-64" value="" style="endArrow=classic;html=1;fontSize=15;entryX=0;entryY=0.5;entryDx=0;entryDy=0;" edge="1" parent="Y1q_z3fYerJlI4DKX37C-1" target="cYeUQ6y9KAvZiZtBVfzN-5">
          <mxGeometry width="50" height="50" relative="1" as="geometry">
            <mxPoint x="10" y="420.5" as="sourcePoint" />
            <mxPoint x="610" y="457.5" as="targetPoint" />
          </mxGeometry>
        </mxCell>
      </root>
    </mxGraphModel>
  </diagram>
</mxfile>
